<svg width="44" height="46" viewBox="0 0 44 46" fill="none" xmlns="http://www.w3.org/2000/svg">
<path d="M43.4422 34.4164L43.4515 34.4114H43.4334L32.8071 28.6534L22.1632 22.8853L11.5189 28.6534L0.892594 34.4114H0.874512L0.883763 34.4164L0.874512 34.4215H0.892594L11.5189 40.1795L22.1632 45.9476L32.8071 40.1795L43.4334 34.4215H43.4515L43.4422 34.4164Z" fill="#DCD8FF"/>
<path d="M43.4422 12.3012L43.4515 12.2965H43.4334L32.8071 6.53813L22.1632 0.77002L11.5189 6.53813L0.892594 12.2965H0.874512L0.883763 12.3012L0.874512 12.3062H0.892594L11.5189 18.0646L22.1632 23.8328L32.8071 18.0646L43.4334 12.3062H43.4515L43.4422 12.3012Z" fill="#4A3AFF"/>
<path d="M0.892578 11.8325V34.8851L22.1632 23.359L0.892578 11.8325Z" fill="#B8B1FF"/>
<path d="M43.4333 11.8325V34.8851L22.1631 23.359L43.4333 11.8325Z" fill="#B8B1FF"/>
</svg>
