<svg width="66" height="167" viewBox="0 0 66 167" fill="none" xmlns="http://www.w3.org/2000/svg">
<path d="M7.57326 21.986C6.64926 21.986 5.81526 21.806 5.07126 21.446C4.32726 21.074 3.73326 20.516 3.28926 19.772C2.85726 19.028 2.64126 18.086 2.64126 16.946V9.17002H4.94526V16.964C4.94526 17.948 5.17926 18.68 5.64726 19.16C6.12726 19.64 6.78726 19.88 7.62726 19.88C8.45526 19.88 9.10926 19.64 9.58926 19.16C10.0693 18.68 10.3093 17.948 10.3093 16.964V9.17002H12.6133V16.946C12.6133 18.086 12.3853 19.028 11.9293 19.772C11.4733 20.516 10.8613 21.074 10.0933 21.446C9.33726 21.806 8.49726 21.986 7.57326 21.986ZM19.2672 21.986C18.3432 21.986 17.5272 21.83 16.8192 21.518C16.1112 21.194 15.5532 20.738 15.1452 20.15C14.7372 19.55 14.5272 18.824 14.5152 17.972H16.9452C16.9692 18.56 17.1792 19.058 17.5752 19.466C17.9832 19.862 18.5412 20.06 19.2492 20.06C19.8612 20.06 20.3472 19.916 20.7072 19.628C21.0672 19.328 21.2472 18.932 21.2472 18.44C21.2472 17.924 21.0852 17.522 20.7612 17.234C20.4492 16.946 20.0292 16.712 19.5012 16.532C18.9732 16.352 18.4092 16.16 17.8092 15.956C16.8372 15.62 16.0932 15.188 15.5772 14.66C15.0732 14.132 14.8212 13.43 14.8212 12.554C14.8092 11.81 14.9832 11.174 15.3432 10.646C15.7152 10.106 16.2192 9.69202 16.8552 9.40402C17.4912 9.10402 18.2232 8.95402 19.0512 8.95402C19.8912 8.95402 20.6292 9.10402 21.2652 9.40402C21.9132 9.70402 22.4172 10.124 22.7772 10.664C23.1492 11.204 23.3472 11.846 23.3712 12.59H20.9052C20.8932 12.146 20.7192 11.756 20.3832 11.42C20.0592 11.072 19.6032 10.898 19.0152 10.898C18.5112 10.886 18.0852 11.012 17.7372 11.276C17.4012 11.528 17.2332 11.9 17.2332 12.392C17.2332 12.812 17.3652 13.148 17.6292 13.4C17.8932 13.64 18.2532 13.844 18.7092 14.012C19.1652 14.18 19.6872 14.36 20.2752 14.552C20.8992 14.768 21.4692 15.02 21.9852 15.308C22.5012 15.596 22.9152 15.98 23.2272 16.46C23.5392 16.928 23.6952 17.534 23.6952 18.278C23.6952 18.938 23.5272 19.55 23.1912 20.114C22.8552 20.678 22.3572 21.134 21.6972 21.482C21.0372 21.818 20.2272 21.986 19.2672 21.986ZM25.7054 21.77V9.17002H30.0074C31.4834 9.17002 32.6954 9.43402 33.6434 9.96202C34.6034 10.478 35.3114 11.21 35.7674 12.158C36.2354 13.094 36.4694 14.198 36.4694 15.47C36.4694 16.742 36.2354 17.852 35.7674 18.8C35.3114 19.736 34.6034 20.468 33.6434 20.996C32.6954 21.512 31.4834 21.77 30.0074 21.77H25.7054ZM28.0094 19.79H29.8994C30.9554 19.79 31.7894 19.622 32.4014 19.286C33.0134 18.938 33.4514 18.446 33.7154 17.81C33.9794 17.162 34.1114 16.382 34.1114 15.47C34.1114 14.57 33.9794 13.796 33.7154 13.148C33.4514 12.5 33.0134 12.002 32.4014 11.654C31.7894 11.306 30.9554 11.132 29.8994 11.132H28.0094V19.79Z" fill="#514F6E"/>
<path d="M7.57326 81.986C6.64926 81.986 5.81526 81.806 5.07126 81.446C4.32726 81.074 3.73326 80.516 3.28926 79.772C2.85726 79.028 2.64126 78.086 2.64126 76.946V69.17H4.94526V76.964C4.94526 77.948 5.17926 78.68 5.64726 79.16C6.12726 79.64 6.78726 79.88 7.62726 79.88C8.45526 79.88 9.10926 79.64 9.58926 79.16C10.0693 78.68 10.3093 77.948 10.3093 76.964V69.17H12.6133V76.946C12.6133 78.086 12.3853 79.028 11.9293 79.772C11.4733 80.516 10.8613 81.074 10.0933 81.446C9.33726 81.806 8.49726 81.986 7.57326 81.986ZM19.2672 81.986C18.3432 81.986 17.5272 81.83 16.8192 81.518C16.1112 81.194 15.5532 80.738 15.1452 80.15C14.7372 79.55 14.5272 78.824 14.5152 77.972H16.9452C16.9692 78.56 17.1792 79.058 17.5752 79.466C17.9832 79.862 18.5412 80.06 19.2492 80.06C19.8612 80.06 20.3472 79.916 20.7072 79.628C21.0672 79.328 21.2472 78.932 21.2472 78.44C21.2472 77.924 21.0852 77.522 20.7612 77.234C20.4492 76.946 20.0292 76.712 19.5012 76.532C18.9732 76.352 18.4092 76.16 17.8092 75.956C16.8372 75.62 16.0932 75.188 15.5772 74.66C15.0732 74.132 14.8212 73.43 14.8212 72.554C14.8092 71.81 14.9832 71.174 15.3432 70.646C15.7152 70.106 16.2192 69.692 16.8552 69.404C17.4912 69.104 18.2232 68.954 19.0512 68.954C19.8912 68.954 20.6292 69.104 21.2652 69.404C21.9132 69.704 22.4172 70.124 22.7772 70.664C23.1492 71.204 23.3472 71.846 23.3712 72.59H20.9052C20.8932 72.146 20.7192 71.756 20.3832 71.42C20.0592 71.072 19.6032 70.898 19.0152 70.898C18.5112 70.886 18.0852 71.012 17.7372 71.276C17.4012 71.528 17.2332 71.9 17.2332 72.392C17.2332 72.812 17.3652 73.148 17.6292 73.4C17.8932 73.64 18.2532 73.844 18.7092 74.012C19.1652 74.18 19.6872 74.36 20.2752 74.552C20.8992 74.768 21.4692 75.02 21.9852 75.308C22.5012 75.596 22.9152 75.98 23.2272 76.46C23.5392 76.928 23.6952 77.534 23.6952 78.278C23.6952 78.938 23.5272 79.55 23.1912 80.114C22.8552 80.678 22.3572 81.134 21.6972 81.482C21.0372 81.818 20.2272 81.986 19.2672 81.986ZM25.7054 81.77V69.17H30.0074C31.4834 69.17 32.6954 69.434 33.6434 69.962C34.6034 70.478 35.3114 71.21 35.7674 72.158C36.2354 73.094 36.4694 74.198 36.4694 75.47C36.4694 76.742 36.2354 77.852 35.7674 78.8C35.3114 79.736 34.6034 80.468 33.6434 80.996C32.6954 81.512 31.4834 81.77 30.0074 81.77H25.7054ZM28.0094 79.79H29.8994C30.9554 79.79 31.7894 79.622 32.4014 79.286C33.0134 78.938 33.4514 78.446 33.7154 77.81C33.9794 77.162 34.1114 76.382 34.1114 75.47C34.1114 74.57 33.9794 73.796 33.7154 73.148C33.4514 72.5 33.0134 72.002 32.4014 71.654C31.7894 71.306 30.9554 71.132 29.8994 71.132H28.0094V79.79Z" fill="#6F6C90"/>
<path d="M4.62927 119.77V107.17H12.8553V109.024H6.93327V112.48H12.3153V114.28H6.93327V117.916H12.8553V119.77H4.62927ZM19.8955 119.986C18.9715 119.986 18.1375 119.806 17.3935 119.446C16.6495 119.074 16.0555 118.516 15.6115 117.772C15.1795 117.028 14.9635 116.086 14.9635 114.946V107.17H17.2675V114.964C17.2675 115.948 17.5015 116.68 17.9695 117.16C18.4495 117.64 19.1095 117.88 19.9495 117.88C20.7775 117.88 21.4315 117.64 21.9115 117.16C22.3915 116.68 22.6315 115.948 22.6315 114.964V107.17H24.9355V114.946C24.9355 116.086 24.7075 117.028 24.2515 117.772C23.7955 118.516 23.1835 119.074 22.4155 119.446C21.6595 119.806 20.8195 119.986 19.8955 119.986ZM27.2875 119.77V107.17H31.9135C32.9215 107.17 33.7495 107.344 34.3975 107.692C35.0575 108.028 35.5495 108.49 35.8735 109.078C36.1975 109.654 36.3595 110.296 36.3595 111.004C36.3595 111.772 36.1555 112.474 35.7475 113.11C35.3515 113.746 34.7275 114.208 33.8755 114.496L36.4855 119.77H33.8395L31.4995 114.802H29.5915V119.77H27.2875ZM29.5915 113.11H31.7695C32.5375 113.11 33.1015 112.924 33.4615 112.552C33.8215 112.18 34.0015 111.688 34.0015 111.076C34.0015 110.476 33.8215 109.996 33.4615 109.636C33.1135 109.276 32.5435 109.096 31.7515 109.096H29.5915V113.11Z" fill="#6F6C90"/>
<path d="M7.79938 157.986C6.61138 157.986 5.57338 157.716 4.68538 157.176C3.79738 156.636 3.10738 155.886 2.61538 154.926C2.12338 153.954 1.87738 152.826 1.87738 151.542C1.87738 150.246 2.12938 149.106 2.63338 148.122C3.14938 147.126 3.87538 146.352 4.81138 145.8C5.75938 145.236 6.88138 144.954 8.17738 144.954C9.65338 144.954 10.8774 145.308 11.8494 146.016C12.8214 146.724 13.4514 147.702 13.7394 148.95H11.1654C10.9734 148.362 10.6254 147.906 10.1214 147.582C9.61738 147.246 8.96938 147.078 8.17738 147.078C6.91738 147.078 5.94538 147.48 5.26138 148.284C4.57738 149.076 4.23538 150.168 4.23538 151.56C4.23538 152.952 4.57138 154.032 5.24338 154.8C5.92738 155.556 6.85138 155.934 8.01538 155.934C9.15538 155.934 10.0134 155.628 10.5894 155.016C11.1774 154.392 11.5314 153.576 11.6514 152.568H8.46538V150.84H13.9734V157.77H11.8494L11.6694 156.114C11.2614 156.714 10.7514 157.176 10.1394 157.5C9.52738 157.824 8.74738 157.986 7.79938 157.986ZM16.2133 157.77V145.17H21.2713C22.5793 145.17 23.5753 145.476 24.2593 146.088C24.9553 146.688 25.3033 147.462 25.3033 148.41C25.3033 149.202 25.0873 149.838 24.6553 150.318C24.2353 150.786 23.7193 151.104 23.1073 151.272C23.8273 151.416 24.4213 151.776 24.8893 152.352C25.3573 152.916 25.5913 153.576 25.5913 154.332C25.5913 155.328 25.2313 156.15 24.5113 156.798C23.7913 157.446 22.7713 157.77 21.4513 157.77H16.2133ZM18.5173 150.462H20.9293C21.5773 150.462 22.0753 150.312 22.4233 150.012C22.7713 149.712 22.9453 149.286 22.9453 148.734C22.9453 148.206 22.7713 147.792 22.4233 147.492C22.0873 147.18 21.5773 147.024 20.8933 147.024H18.5173V150.462ZM18.5173 155.898H21.0913C21.7753 155.898 22.3033 155.742 22.6753 155.43C23.0593 155.106 23.2513 154.656 23.2513 154.08C23.2513 153.492 23.0533 153.03 22.6573 152.694C22.2613 152.358 21.7273 152.19 21.0553 152.19H18.5173V155.898ZM27.5687 157.77V145.17H32.2307C33.2387 145.17 34.0727 145.338 34.7327 145.674C35.3927 146.01 35.8847 146.472 36.2087 147.06C36.5327 147.648 36.6947 148.308 36.6947 149.04C36.6947 149.736 36.5387 150.378 36.2267 150.966C35.9147 151.542 35.4287 152.01 34.7687 152.37C34.1087 152.718 33.2627 152.892 32.2307 152.892H29.8727V157.77H27.5687ZM29.8727 151.02H32.0867C32.8907 151.02 33.4667 150.846 33.8147 150.498C34.1747 150.138 34.3547 149.652 34.3547 149.04C34.3547 148.416 34.1747 147.93 33.8147 147.582C33.4667 147.222 32.8907 147.042 32.0867 147.042H29.8727V151.02Z" fill="#6F6C90"/>
<path d="M64.2783 18.77L58.2783 12.77L52.2783 18.77" stroke="#170F49" stroke-width="1.5" stroke-linecap="round" stroke-linejoin="round"/>
</svg>
