<svg width="147" height="206" viewBox="0 0 147 206" fill="none" xmlns="http://www.w3.org/2000/svg">
<g filter="url(#filter0_d_1449_8907)">
<g filter="url(#filter1_d_1449_8907)">
<path d="M6.27832 61.77H140.278V182.77C140.278 191.054 133.563 197.77 125.278 197.77H21.2783C12.9941 197.77 6.27832 191.054 6.27832 182.77V61.77Z" fill="white"/>
<path d="M6.77832 62.27H139.778V182.77C139.778 190.778 133.286 197.27 125.278 197.27H21.2783C13.2702 197.27 6.77832 190.778 6.77832 182.77V62.27Z" stroke="#EFF0F7"/>
</g>
<path d="M6.77832 19.77C6.77832 11.7619 13.2702 5.27002 21.2783 5.27002H125.278C133.286 5.27002 139.778 11.7619 139.778 19.77V64.27H6.77832V19.77Z" fill="white" stroke="#EFF0F7"/>
<mask id="mask0_1449_8907" style="mask-type:alpha" maskUnits="userSpaceOnUse" x="24" y="25" width="28" height="19">
<path d="M24.7783 27.77C24.7783 26.9416 25.4499 26.27 26.2783 26.27H49.2783C50.1067 26.27 50.7783 26.9416 50.7783 27.77V41.77C50.7783 42.5984 50.1067 43.27 49.2783 43.27H26.2783C25.4499 43.27 24.7783 42.5984 24.7783 41.77V27.77Z" fill="#C4C4C4" stroke="black"/>
</mask>
<g mask="url(#mask0_1449_8907)">
<path d="M24.2783 25.77H33.2783V34.77H24.2783V25.77Z" fill="#4427F8"/>
<path d="M33.2783 25.77H51.2783V28.77H33.2783V25.77Z" fill="#FF0000"/>
<path d="M33.2783 28.77H51.2783V31.77H33.2783V28.77Z" fill="white"/>
<path d="M33.2783 31.77H51.2783V34.77H33.2783V31.77Z" fill="#FF0000"/>
<path d="M24.2783 34.77H51.2783V37.77H24.2783V34.77Z" fill="white"/>
<path d="M24.2783 37.77H51.2783V40.77H24.2783V37.77Z" fill="#FF0000"/>
<path d="M24.2783 40.77H51.2783V43.77H24.2783V40.77Z" fill="white"/>
<rect x="24.7783" y="26.27" width="26" height="17" rx="1.5" stroke="white"/>
</g>
<mask id="mask1_1449_8907" style="mask-type:alpha" maskUnits="userSpaceOnUse" x="24" y="84" width="28" height="19">
<path d="M24.7783 86.77C24.7783 85.9416 25.4499 85.27 26.2783 85.27H49.2783C50.1067 85.27 50.7783 85.9416 50.7783 86.77V100.77C50.7783 101.598 50.1067 102.27 49.2783 102.27H26.2783C25.4499 102.27 24.7783 101.598 24.7783 100.77V86.77Z" fill="#C4C4C4" stroke="black"/>
</mask>
<g mask="url(#mask1_1449_8907)">
<path d="M24.2783 84.77H33.2783V93.77H24.2783V84.77Z" fill="#4427F8"/>
<path d="M33.2783 84.77H51.2783V87.77H33.2783V84.77Z" fill="#FF0000"/>
<path d="M33.2783 87.77H51.2783V90.77H33.2783V87.77Z" fill="white"/>
<path d="M33.2783 90.77H51.2783V93.77H33.2783V90.77Z" fill="#FF0000"/>
<path d="M24.2783 93.77H51.2783V96.77H24.2783V93.77Z" fill="white"/>
<path d="M24.2783 96.77H51.2783V99.77H24.2783V96.77Z" fill="#FF0000"/>
<path d="M24.2783 99.77H51.2783V102.77H24.2783V99.77Z" fill="white"/>
<rect x="24.7783" y="85.27" width="26" height="17" rx="1.5" stroke="white"/>
</g>
<mask id="mask2_1449_8907" style="mask-type:alpha" maskUnits="userSpaceOnUse" x="24" y="122" width="28" height="19">
<path d="M24.7783 124.77C24.7783 123.942 25.4499 123.27 26.2783 123.27H49.2783C50.1067 123.27 50.7783 123.942 50.7783 124.77V138.77C50.7783 139.598 50.1067 140.27 49.2783 140.27H26.2783C25.4499 140.27 24.7783 139.598 24.7783 138.77V124.77Z" fill="#C4C4C4" stroke="black"/>
</mask>
<g mask="url(#mask2_1449_8907)">
<path d="M24.2783 122.77H51.2783V128.77H24.2783V122.77Z" fill="#FF0000"/>
<path d="M24.2783 128.77H51.2783V134.77H24.2783V128.77Z" fill="#FFE600"/>
<path d="M24.2783 134.77H51.2783V140.77H24.2783V134.77Z" fill="#FF0000"/>
<rect x="24.7783" y="123.27" width="26" height="17" rx="1.5" stroke="white"/>
</g>
<mask id="mask3_1449_8907" style="mask-type:alpha" maskUnits="userSpaceOnUse" x="24" y="160" width="28" height="19">
<path d="M24.7783 162.77C24.7783 161.941 25.4499 161.27 26.2783 161.27H49.2783C50.1067 161.27 50.7783 161.941 50.7783 162.77V176.77C50.7783 177.598 50.1067 178.27 49.2783 178.27H26.2783C25.4499 178.27 24.7783 177.598 24.7783 176.77V162.77Z" fill="#C4C4C4" stroke="black"/>
</mask>
<g mask="url(#mask3_1449_8907)">
<path d="M24.2783 160.77H51.2783V178.77H24.2783V160.77Z" fill="#4427F8"/>
<path d="M50.2783 161.77L25.2783 177.77" stroke="white"/>
<path d="M25.2783 161.77L50.2783 177.77" stroke="white"/>
<mask id="path-31-inside-1_1449_8907" fill="white">
<path fill-rule="evenodd" clip-rule="evenodd" d="M41.2783 160.77H35.2783V166.77L24.2783 166.77V172.77H35.2783V178.77H41.2783V172.77H51.2783V166.77L41.2783 166.77V160.77Z"/>
</mask>
<path fill-rule="evenodd" clip-rule="evenodd" d="M41.2783 160.77H35.2783V166.77L24.2783 166.77V172.77H35.2783V178.77H41.2783V172.77H51.2783V166.77L41.2783 166.77V160.77Z" fill="#FF0000"/>
<path d="M35.2783 160.77V159.77H34.2783V160.77H35.2783ZM41.2783 160.77H42.2783V159.77H41.2783V160.77ZM35.2783 166.77V167.77H36.2783V166.77H35.2783ZM24.2783 166.77L24.2783 165.77H23.2783V166.77H24.2783ZM24.2783 172.77H23.2783V173.77H24.2783V172.77ZM35.2783 172.77H36.2783V171.77H35.2783V172.77ZM35.2783 178.77H34.2783V179.77H35.2783V178.77ZM41.2783 178.77V179.77H42.2783V178.77H41.2783ZM41.2783 172.77V171.77H40.2783V172.77H41.2783ZM51.2783 172.77V173.77H52.2783V172.77H51.2783ZM51.2783 166.77H52.2783V165.77H51.2783V166.77ZM41.2783 166.77H40.2783V167.77H41.2783V166.77ZM35.2783 161.77H41.2783V159.77H35.2783V161.77ZM36.2783 166.77V160.77H34.2783V166.77H36.2783ZM24.2783 167.77L35.2783 167.77V165.77L24.2783 165.77L24.2783 167.77ZM25.2783 172.77V166.77H23.2783V172.77H25.2783ZM35.2783 171.77H24.2783V173.77H35.2783V171.77ZM36.2783 178.77V172.77H34.2783V178.77H36.2783ZM41.2783 177.77H35.2783V179.77H41.2783V177.77ZM40.2783 172.77V178.77H42.2783V172.77H40.2783ZM51.2783 171.77H41.2783V173.77H51.2783V171.77ZM50.2783 166.77V172.77H52.2783V166.77H50.2783ZM41.2783 167.77L51.2783 167.77V165.77L41.2783 165.77V167.77ZM40.2783 160.77V166.77H42.2783V160.77H40.2783Z" fill="white" mask="url(#path-31-inside-1_1449_8907)"/>
<rect x="24.7783" y="161.27" width="26" height="17" rx="1.5" stroke="white"/>
</g>
</g>
<defs>
<filter id="filter0_d_1449_8907" x="0.27832" y="0.77002" width="146" height="205" filterUnits="userSpaceOnUse" color-interpolation-filters="sRGB">
<feFlood flood-opacity="0" result="BackgroundImageFix"/>
<feColorMatrix in="SourceAlpha" type="matrix" values="0 0 0 0 0 0 0 0 0 0 0 0 0 0 0 0 0 0 127 0" result="hardAlpha"/>
<feOffset dy="2"/>
<feGaussianBlur stdDeviation="3"/>
<feComposite in2="hardAlpha" operator="out"/>
<feColorMatrix type="matrix" values="0 0 0 0 0 0 0 0 0 0.00392157 0 0 0 0 0.254902 0 0 0 0.04 0"/>
<feBlend mode="normal" in2="BackgroundImageFix" result="effect1_dropShadow_1449_8907"/>
<feBlend mode="normal" in="SourceGraphic" in2="effect1_dropShadow_1449_8907" result="shape"/>
</filter>
<filter id="filter1_d_1449_8907" x="0.27832" y="57.77" width="146" height="148" filterUnits="userSpaceOnUse" color-interpolation-filters="sRGB">
<feFlood flood-opacity="0" result="BackgroundImageFix"/>
<feColorMatrix in="SourceAlpha" type="matrix" values="0 0 0 0 0 0 0 0 0 0 0 0 0 0 0 0 0 0 127 0" result="hardAlpha"/>
<feOffset dy="2"/>
<feGaussianBlur stdDeviation="3"/>
<feComposite in2="hardAlpha" operator="out"/>
<feColorMatrix type="matrix" values="0 0 0 0 0 0 0 0 0 0 0 0 0 0 0 0 0 0 0.04 0"/>
<feBlend mode="normal" in2="BackgroundImageFix" result="effect1_dropShadow_1449_8907"/>
<feBlend mode="normal" in="SourceGraphic" in2="effect1_dropShadow_1449_8907" result="shape"/>
</filter>
</defs>
</svg>
