<svg width="305" height="42" viewBox="0 0 305 42" fill="none" xmlns="http://www.w3.org/2000/svg">
<path d="M62.3683 33.7973V31.2669C63.8143 33.6889 66.5616 34.2311 68.116 34.2311C72.7431 34.2311 76.6833 30.2909 76.6833 24.507C76.6833 18.9762 73.1407 14.7468 67.9353 14.7468C66.164 14.7468 64.1396 15.3613 62.8744 17.2772V7.95075H56.5845V33.7973H62.3683ZM62.7298 24.4347C62.7298 21.832 64.3927 20.2414 66.5978 20.2414C68.6582 20.2414 70.3573 21.832 70.3573 24.4347C70.3573 27.0374 68.6582 28.7364 66.5978 28.7364C64.3927 28.7364 62.7298 27.0736 62.7298 24.4347Z" fill="#0D0A2C"/>
<path d="M92.5005 14.8914C92.2113 14.7829 91.8137 14.7468 91.3437 14.7468C88.8856 14.7468 87.0782 16.0843 86.1021 18.3617V15.1806H79.8483V33.7973H86.1383V26.9651C86.1383 23.061 87.9096 20.6391 91.0907 20.6391C91.7414 20.6391 92.2113 20.7114 92.5005 20.856V14.8914Z" fill="#0D0A2C"/>
<path d="M94.9222 33.7973H101.212V15.1806H94.9222V33.7973ZM94.6692 9.97509C94.6692 11.8548 96.1151 13.2285 98.031 13.2285C99.9469 13.2285 101.429 11.8548 101.429 9.97509C101.429 8.09534 99.9469 6.72168 98.031 6.72168C96.1151 6.72168 94.6692 8.09534 94.6692 9.97509Z" fill="#0D0A2C"/>
<path d="M109.845 24.5793L103.446 33.7973H110.423L113.46 28.881L116.496 33.7973H123.473L117.075 24.5793L123.617 15.1806H116.46L113.46 20.3499L110.459 15.1806H103.302L109.845 24.5793Z" fill="#0D0A2C"/>
<path d="M130.864 18.8316H133.25V26.2783C133.25 30.6162 135.708 33.002 139.757 33.002C141.601 33.002 143.01 32.6044 143.986 32.1345V26.8205C143.227 27.3628 142.324 27.5074 141.564 27.5074C140.408 27.5074 139.54 26.8205 139.54 25.23V18.8316H143.48V13.9515H139.54V8.92677H133.431V13.9515H130.864V18.8316Z" fill="#4A3AFF"/>
<path d="M163.324 24.76C163.504 24.1817 163.685 23.061 163.685 22.085C163.685 16.988 160.07 13.5177 154.756 13.5177C149.262 13.5177 145.068 17.7833 145.068 23.2779C145.068 28.7726 149.153 33.002 155.515 33.002C158.66 33.002 161.118 32.2067 163.577 30.0017L160.395 26.0253C159.492 26.8928 158.01 27.7604 155.985 27.7604C153.853 27.7604 151.828 26.8567 151.539 24.76H163.324ZM154.612 18.5063C156.238 18.5063 157.504 19.5184 157.612 21.109V21.1451H151.431C151.539 19.4461 152.985 18.5063 154.612 18.5063Z" fill="#4A3AFF"/>
<path d="M166.777 13.9515V32.5682H173.067V22.7718C173.067 20.4583 174.259 19.0123 176.031 19.0123C177.911 19.0123 178.923 20.1691 178.923 22.3381V32.5682H185.213V22.7718C185.213 20.4583 186.478 19.0123 188.177 19.0123C190.057 19.0123 191.069 20.1691 191.069 22.3381V32.5682H197.359V21.2174C197.359 16.4096 194.684 13.5177 190.165 13.5177C187.02 13.5177 185.321 14.9275 184.056 16.5542C182.791 14.566 180.766 13.5177 178.019 13.5177C175.814 13.5177 174.043 14.2768 172.777 16.1566V13.9515H166.777Z" fill="#4A3AFF"/>
<path d="M201.619 39.798H207.909V30.7608C209.102 32.4959 211.199 33.002 212.97 33.002C218.176 33.002 221.718 28.7726 221.718 23.2418C221.718 17.4579 217.67 13.5177 213.043 13.5177C211.524 13.5177 208.958 14.0599 207.403 16.4819V13.9515H201.619V39.798ZM207.765 23.3141C207.765 20.6752 209.428 19.0123 211.633 19.0123C213.693 19.0123 215.392 20.7114 215.392 23.3141C215.392 25.9168 213.693 27.5074 211.633 27.5074C209.428 27.5074 207.765 25.9168 207.765 23.3141Z" fill="#4A3AFF"/>
<path d="M224.666 27.0013C224.666 30.9054 226.908 33.002 230.812 33.002C232.077 33.002 233.053 32.7851 233.74 32.4598V27.3989C233.27 27.5797 232.836 27.6158 232.511 27.6158C231.065 27.6158 230.956 26.7121 230.956 25.8445V6.72168H224.666V27.0013Z" fill="#4A3AFF"/>
<path d="M241.516 33.002C243.975 33.002 245.601 31.9176 246.324 30.5077V32.5682H252.144V20.9282C252.144 16.3012 248.963 13.5177 243.577 13.5177C239.926 13.5177 236.926 15.1083 235.335 17.1326L238.625 21.0728C239.601 19.9522 241.119 18.8678 243.252 18.8678C244.806 18.8678 246.144 19.41 246.144 20.9644V21.0005L241.336 21.9404C237.432 22.7718 235.263 24.6516 235.263 27.3989C235.263 30.6885 237.902 33.002 241.516 33.002ZM246.144 24.7962V25.0854C246.144 27.1459 244.987 28.4834 242.999 28.4834C241.878 28.4834 241.263 27.905 241.263 27.0013C241.263 26.0976 241.986 25.6276 243.107 25.3746L246.144 24.7962Z" fill="#4A3AFF"/>
<path d="M254.385 18.8316H256.771V26.2783C256.771 30.6162 259.229 33.002 263.278 33.002C265.121 33.002 266.531 32.6044 267.507 32.1345V26.8205C266.748 27.3628 265.844 27.5074 265.085 27.5074C263.929 27.5074 263.061 26.8205 263.061 25.23V18.8316H267.001V13.9515H263.061V8.92677H256.952V13.9515H254.385V18.8316Z" fill="#4A3AFF"/>
<path d="M286.845 24.76C287.025 24.1817 287.206 23.061 287.206 22.085C287.206 16.988 283.591 13.5177 278.277 13.5177C272.783 13.5177 268.589 17.7833 268.589 23.2779C268.589 28.7726 272.674 33.002 279.036 33.002C282.181 33.002 284.639 32.2067 287.098 30.0017L283.916 26.0253C283.013 26.8928 281.531 27.7604 279.506 27.7604C277.373 27.7604 275.349 26.8567 275.06 24.76H286.845ZM278.133 18.5063C279.759 18.5063 281.025 19.5184 281.133 21.109V21.1451H274.951C275.06 19.4461 276.506 18.5063 278.133 18.5063Z" fill="#4A3AFF"/>
<path d="M296.732 33.002C301.359 33.002 304.468 30.4354 304.468 27.1097C304.468 23.4225 301.612 22.4465 298.684 21.2897C296.045 20.1691 294.925 19.9884 294.925 19.3015C294.925 18.6147 295.756 18.2171 296.732 18.2171C298.467 18.2171 299.443 19.0485 300.058 20.0968L303.962 17.2772C302.805 15.0721 300.094 13.5177 296.913 13.5177C292.72 13.5177 289.213 15.542 289.213 19.2654C289.213 22.2658 291.274 23.7479 294.925 25.0492C297.491 25.953 298.756 26.2783 298.756 27.2543C298.756 27.9412 298.07 28.3027 296.804 28.3027C294.925 28.3027 293.479 27.1459 292.611 25.6638L288.599 28.7364C290.153 31.4838 293.262 33.002 296.732 33.002Z" fill="#4A3AFF"/>
<path fill-rule="evenodd" clip-rule="evenodd" d="M34.5614 12.4114C37.803 12.4114 40.4309 9.7835 40.4309 6.54186C40.4309 3.30023 37.803 0.672363 34.5614 0.672363C31.3198 0.672363 28.6919 3.30023 28.6919 6.54186C28.6919 9.7835 31.3198 12.4114 34.5614 12.4114Z" fill="#8055FA"/>
<path fill-rule="evenodd" clip-rule="evenodd" d="M34.5614 26.4943C37.803 26.4943 40.4309 23.8667 40.4309 20.6255C40.4309 17.3843 37.803 14.7568 34.5614 14.7568C31.3198 14.7568 28.6919 17.3843 28.6919 20.6255C28.6919 23.8667 31.3198 26.4943 34.5614 26.4943Z" fill="#7550FB"/>
<path fill-rule="evenodd" clip-rule="evenodd" d="M34.5614 41.1023C37.803 41.1023 40.4309 38.4744 40.4309 35.2328C40.4309 31.9911 37.803 29.3633 34.5614 29.3633C31.3198 29.3633 28.6919 31.9911 28.6919 35.2328C28.6919 38.4744 31.3198 41.1023 34.5614 41.1023Z" fill="#6A4AFC"/>
<path fill-rule="evenodd" clip-rule="evenodd" d="M19.9537 26.4938C23.1949 26.4938 25.8224 23.8663 25.8224 20.6251C25.8224 17.3839 23.1949 14.7563 19.9537 14.7563C16.7125 14.7563 14.085 17.3839 14.085 20.6251C14.085 23.8663 16.7125 26.4938 19.9537 26.4938Z" fill="#6045FD"/>
<path fill-rule="evenodd" clip-rule="evenodd" d="M19.9532 41.1023C23.1944 41.1023 25.8219 38.4744 25.8219 35.2328C25.8219 31.9911 23.1944 29.3633 19.9532 29.3633C16.712 29.3633 14.0845 31.9911 14.0845 35.2328C14.0845 38.4744 16.712 41.1023 19.9532 41.1023Z" fill="#553FFE"/>
<path fill-rule="evenodd" clip-rule="evenodd" d="M5.8695 41.1023C9.11113 41.1023 11.739 38.4744 11.739 35.2328C11.739 31.9911 9.11113 29.3633 5.8695 29.3633C2.62786 29.3633 0 31.9911 0 35.2328C0 38.4744 2.62786 41.1023 5.8695 41.1023Z" fill="#4A3AFF"/>
</svg>
