<svg width="135" height="39" viewBox="0 0 135 39" fill="none" xmlns="http://www.w3.org/2000/svg">
<path fill-rule="evenodd" clip-rule="evenodd" d="M32.3234 11.468C35.1746 11.468 37.4858 9.12054 37.4858 6.22475C37.4858 3.32895 35.1746 0.981445 32.3234 0.981445C29.4724 0.981445 27.1611 3.32895 27.1611 6.22475C27.1611 9.12054 29.4724 11.468 32.3234 11.468Z" fill="#FF2D46"/>
<path fill-rule="evenodd" clip-rule="evenodd" d="M32.3234 25.2249C35.1746 25.2249 37.4858 22.8774 37.4858 19.9816C37.4858 17.0858 35.1746 14.7383 32.3234 14.7383C29.4724 14.7383 27.1611 17.0858 27.1611 19.9816C27.1611 22.8774 29.4724 25.2249 32.3234 25.2249Z" fill="#D53D5C"/>
<path fill-rule="evenodd" clip-rule="evenodd" d="M32.3234 38.9817C35.1746 38.9817 37.4858 36.6342 37.4858 33.7385C37.4858 30.8426 35.1746 28.4951 32.3234 28.4951C29.4724 28.4951 27.1611 30.8426 27.1611 33.7385C27.1611 36.6342 29.4724 38.9817 32.3234 38.9817Z" fill="#815EAD"/>
<path fill-rule="evenodd" clip-rule="evenodd" d="M19.1779 25.2249C22.029 25.2249 24.3403 22.8774 24.3403 19.9816C24.3403 17.0858 22.029 14.7383 19.1779 14.7383C16.3269 14.7383 14.0156 17.0858 14.0156 19.9816C14.0156 22.8774 16.3269 25.2249 19.1779 25.2249Z" fill="#AB4D85"/>
<path fill-rule="evenodd" clip-rule="evenodd" d="M19.1779 38.9808C22.029 38.9808 24.3403 36.6333 24.3403 33.7374C24.3403 30.8417 22.029 28.4941 19.1779 28.4941C16.3269 28.4941 14.0156 30.8417 14.0156 33.7374C14.0156 36.6333 16.3269 38.9808 19.1779 38.9808Z" fill="#576ED6"/>
<path fill-rule="evenodd" clip-rule="evenodd" d="M6.03246 38.9817C8.88354 38.9817 11.1948 36.6342 11.1948 33.7385C11.1948 30.8426 8.88354 28.4951 6.03246 28.4951C3.18138 28.4951 0.870117 30.8426 0.870117 33.7385C0.870117 36.6342 3.18138 38.9817 6.03246 38.9817Z" fill="#2388FF"/>
<path d="M63.4119 31.1861C60.355 31.1861 57.9725 28.8106 57.9725 24.9732C57.9725 21.2729 60.355 18.8974 63.4119 18.8974C66.3339 18.8974 68.7614 21.3186 68.7614 24.9732C68.7614 28.7649 66.3339 31.1861 63.4119 31.1861ZM57.6578 33.4702C59.3211 36.2569 62.6477 37.3076 64.9403 37.3076C70.7843 37.3076 75.6393 32.2825 75.6393 25.0646C75.6393 18.0751 71.0989 12.7759 64.8054 12.7759C62.288 12.7759 59.6358 13.8266 58.1523 16.1564V4.18754H51.3193V36.7594H57.6578V33.4702Z" fill="#19213D"/>
<path d="M87.3553 13.3241H80.5673V36.7594H87.4452V27.303C87.4452 22.415 89.8278 19.3542 93.7837 19.3542C94.458 19.3542 94.9525 19.4456 95.3121 19.5826V12.9586C94.9525 12.8216 94.413 12.7759 93.8736 12.7759C90.8167 12.7759 88.5691 14.5119 87.3553 17.3899V13.3241Z" fill="#19213D"/>
<path d="M99.3232 36.7594H106.156V13.3241H99.3232V36.7594ZM102.65 2.9541C100.537 2.9541 98.8736 4.50732 98.8736 6.65441C98.8736 8.8015 100.537 10.4004 102.65 10.4004C104.763 10.4004 106.471 8.8015 106.471 6.65441C106.471 4.50732 104.763 2.9541 102.65 2.9541Z" fill="#19213D"/>
<path d="M117.666 25.0189L109.754 36.7594H117.396L121.712 29.7699L126.027 36.7594H133.67L125.758 25.0189L133.67 13.3241H125.893L121.712 20.3592L117.531 13.3241H109.754L117.666 25.0189Z" fill="#19213D"/>
</svg>
