<svg width="85" height="85" viewBox="0 0 85 85" fill="none" xmlns="http://www.w3.org/2000/svg">
<g id="icon-cronograma.svg" clip-path="url(#clip0_3_1291)">
<g id="Clip path group">
<mask id="mask0_3_1291" style="mask-type:luminance" maskUnits="userSpaceOnUse" x="0" y="0" width="85" height="85">
<g id="clip-path">
<path id="Vector" d="M85 0.698364H0V84.3016H85V0.698364Z" fill="white"/>
</g>
</mask>
<g mask="url(#mask0_3_1291)">
<g id="Grupo de rolagem 1">
<g id="Clip path group_2">
<mask id="mask1_3_1291" style="mask-type:luminance" maskUnits="userSpaceOnUse" x="-17" y="-17" width="126" height="126">
<g id="clip-path-2">
<path id="Vector_2" d="M108.744 -16.7607H-16.7607V108.744H108.744V-16.7607Z" fill="white"/>
</g>
</mask>
<g mask="url(#mask1_3_1291)">
<g id="Repeti&#195;&#167;&#195;&#163;o de grade 3">
<g id="Grupo 194">
<g id="Grupo 196">
<g id="Group">
<path id="Ret&#195;&#162;ngulo 305" d="M68.9376 0.698364H16.0624C7.57707 0.698364 0.698364 7.57707 0.698364 16.0624V68.9376C0.698364 77.4229 7.57707 84.3016 16.0624 84.3016H68.9376C77.4229 84.3016 84.3016 77.4229 84.3016 68.9376V16.0624C84.3016 7.57707 77.4229 0.698364 68.9376 0.698364Z" fill="#FBE2D1"/>
</g>
<path id="Caminho 424" d="M57.8854 62.5797C58.0732 62.3926 58.025 62.0643 57.9971 61.8185C57.9788 61.6341 57.9355 61.4529 57.8686 61.2801C57.8593 61.1266 57.8019 60.98 57.7045 60.8611C57.6541 60.7863 57.5879 60.7236 57.5105 60.6774C57.4331 60.6311 57.3465 60.6025 57.2568 60.5936C57.2732 59.6667 57.2087 58.7402 57.0641 57.8246C56.9331 56.6895 56.7231 55.565 56.4356 54.4592C55.9516 52.5374 55.1183 50.721 53.9773 49.1006C52.8586 47.5748 51.4202 46.3116 49.7627 45.3993C48.0779 44.4213 46.265 43.6833 44.3762 43.2064C44.3994 43.1528 44.4063 43.0935 44.3958 43.036C44.3583 42.6249 44.3656 42.2109 44.4174 41.8013C48.2517 40.9123 51.6529 38.7069 54.029 35.5691C56.4349 32.3818 57.8414 28.017 57.1919 24.0272C57.4293 23.8113 57.5713 23.5098 57.5865 23.1892C57.6017 22.8686 57.4889 22.5551 57.2729 22.3176C57.4759 21.7914 57.5609 21.227 57.5219 20.6643C57.4829 20.1017 57.3209 19.5544 57.0473 19.0612C57.0718 19.0486 57.0969 19.0374 57.1207 19.0242C57.2976 18.9166 57.4511 18.7746 57.5722 18.6068C57.6934 18.4389 57.7798 18.2485 57.8262 18.0467C57.8726 17.8449 57.8781 17.6359 57.8425 17.432C57.8068 17.228 57.7307 17.0333 57.6186 16.8592C57.4489 16.0324 56.048 15.7139 55.4097 15.5323C54.0867 15.1977 52.7335 14.9972 51.3703 14.9338C49.8584 14.8256 48.3408 14.7893 46.8247 14.7579C45.4099 14.6688 43.9915 14.6541 42.5751 14.7139C41.1591 14.6541 39.7408 14.6688 38.3263 14.7579C36.8108 14.7893 35.2933 14.8277 33.7806 14.9338C32.4175 14.9972 31.0642 15.1977 29.7413 15.5323C29.103 15.7118 27.7021 16.0303 27.5324 16.8592C27.4203 17.0333 27.3442 17.228 27.3085 17.432C27.2729 17.6359 27.2784 17.8449 27.3248 18.0467C27.3712 18.2485 27.4576 18.4389 27.5787 18.6068C27.6999 18.7746 27.8534 18.9166 28.0303 19.0242C28.0541 19.0374 28.0792 19.0486 28.1036 19.0612C27.83 19.5544 27.6681 20.1017 27.6291 20.6643C27.5901 21.227 27.6751 21.7914 27.8781 22.3176C27.6621 22.5551 27.5493 22.8686 27.5645 23.1892C27.5797 23.5098 27.7216 23.8113 27.9591 24.0272C27.3096 28.017 28.7161 32.3818 31.122 35.5691C33.4981 38.7069 36.8993 40.9123 40.7336 41.8013C40.7853 42.2109 40.7926 42.6249 40.7552 43.036C40.7447 43.0935 40.7515 43.1528 40.7748 43.2064C38.886 43.6833 37.073 44.4213 35.3883 45.3993C33.7307 46.3116 32.2924 47.5748 31.1736 49.1006C30.0327 50.721 29.1994 52.5374 28.7154 54.4592C28.4279 55.565 28.2178 56.6895 28.0869 57.8246C27.9422 58.7402 27.8777 59.6667 27.8941 60.5936C27.8044 60.6025 27.7178 60.6311 27.6404 60.6774C27.5631 60.7236 27.4969 60.7863 27.4465 60.8611C27.3491 60.98 27.2917 61.1266 27.2824 61.2801C27.2153 61.4529 27.1721 61.6341 27.1539 61.8185C27.1294 62.0643 27.0777 62.3926 27.2656 62.5797C27.33 62.7441 27.4279 62.8932 27.553 63.0176C27.6782 63.1421 27.8279 63.2391 27.9926 63.3025C27.7439 63.7842 27.594 64.3107 27.5517 64.8511C27.5093 65.3915 27.5754 65.9349 27.7461 66.4494C27.6147 66.5622 27.5093 66.7021 27.437 66.8595C27.3647 67.0168 27.3273 67.1879 27.3273 67.3611C27.3273 67.5343 27.3647 67.7054 27.437 67.8627C27.5093 68.0201 27.6147 68.16 27.7461 68.2728C28.2022 68.655 28.7544 68.905 29.3425 68.9956C30.2539 69.2163 31.1778 69.3951 32.1018 69.5543C35.5587 70.1459 39.0646 70.4032 42.5709 70.3225C46.0772 70.4032 49.5832 70.1459 53.0401 69.5543C53.9641 69.393 54.888 69.2142 55.7994 68.9956C56.3875 68.905 56.9397 68.655 57.3958 68.2728C57.5272 68.16 57.6326 68.0201 57.7049 67.8627C57.7771 67.7054 57.8146 67.5343 57.8146 67.3611C57.8146 67.1879 57.7771 67.0168 57.7049 66.8595C57.6326 66.7021 57.5272 66.5622 57.3958 66.4494C57.5665 65.9349 57.6325 65.3915 57.5902 64.8511C57.5479 64.3107 57.398 63.7842 57.1493 63.3025C57.3157 63.2402 57.4671 63.1436 57.5939 63.0191C57.7207 62.8946 57.82 62.745 57.8854 62.5797ZM28.2747 16.5959C28.7936 16.2426 29.3853 16.0104 30.006 15.9164C30.6688 15.7451 31.3423 15.6186 32.0221 15.5379C33.2136 15.3871 34.4155 15.3179 35.6152 15.2691C36.815 15.2202 38.026 15.1929 39.2314 15.1531C40.3383 15.1168 41.4787 15.1461 42.58 14.9995C43.6813 15.1461 44.8218 15.1161 45.9322 15.1531C47.1376 15.1929 48.3436 15.223 49.5483 15.2691C50.753 15.3151 51.95 15.3864 53.1414 15.5379C53.8212 15.6186 54.4948 15.7451 55.1576 15.9164C55.7783 16.0104 56.3699 16.2426 56.8888 16.5959C57.9517 17.8048 54.4445 18.1875 53.8335 18.2804C52.5578 18.4736 51.2775 18.6266 49.9925 18.7392C47.5925 18.938 45.1839 19.0121 42.7763 18.9613C42.7593 18.9578 42.7419 18.9561 42.7246 18.9564H42.5849H42.4452C42.4279 18.9561 42.4106 18.9578 42.3936 18.9613C39.9859 19.0121 37.5773 18.938 35.1774 18.7392C33.8924 18.6261 32.612 18.4732 31.3364 18.2804C30.719 18.1889 27.2118 17.8048 28.2747 16.5959ZM27.7091 18.022C27.6701 17.8621 27.6615 17.6962 27.6839 17.5332C28.1547 18.0054 28.7686 18.3085 29.4298 18.3949C30.7851 18.6689 32.1536 18.8724 33.5299 19.0046C36.5339 19.3569 39.56 19.4827 42.5828 19.381C45.6056 19.4827 48.6318 19.3569 51.6357 19.0046C53.012 18.8724 54.3806 18.6689 55.7358 18.3949C56.397 18.3085 57.011 18.0054 57.4817 17.5332C57.5041 17.6962 57.4956 17.8621 57.4566 18.022C57.3817 18.2418 57.2481 18.4369 57.0704 18.5863C56.8927 18.7357 56.6775 18.8338 56.4481 18.8698C55.8157 19.0295 55.1747 19.1535 54.5283 19.2414C53.1782 19.4741 51.8219 19.6622 50.4597 19.8056C47.9074 20.061 45.3422 20.1653 42.7777 20.1178C42.762 20.1148 42.7461 20.1134 42.7302 20.1136H42.5849H42.4397C42.4237 20.1134 42.4078 20.1148 42.3922 20.1178C39.8276 20.1653 37.2624 20.061 34.7102 19.8056C33.3479 19.6632 31.9917 19.4751 30.6415 19.2414C29.9951 19.1535 29.3542 19.0295 28.7217 18.8698C28.4917 18.8343 28.2758 18.7365 28.0975 18.5871C27.9191 18.4376 27.785 18.2422 27.7098 18.022H27.7091ZM57.0403 20.798C57.0121 21.3417 56.9543 21.8835 56.8672 22.421C56.3141 23.6243 54.7455 23.6704 53.5779 23.868C52.3022 24.0836 51.0205 24.2584 49.7327 24.3925C47.459 24.6248 45.1742 24.7316 42.8887 24.7123C42.8722 24.7089 42.8553 24.7072 42.8384 24.7074H42.5807H42.323C42.3061 24.7072 42.2893 24.7089 42.2727 24.7123C39.9873 24.7316 37.7025 24.6248 35.4288 24.3925C34.1419 24.2593 32.8602 24.0845 31.5836 23.868C30.4159 23.6711 28.8474 23.625 28.2943 22.421C28.2073 21.8835 28.1494 21.3417 28.1211 20.798C28.1316 20.2393 28.2964 19.7169 28.3495 19.1715C28.87 19.3442 29.4061 19.4661 29.9501 19.5354C30.8273 19.6978 31.7081 19.8394 32.5927 19.96C35.9003 20.4233 39.2407 20.6102 42.5793 20.5187C45.9179 20.6102 49.2584 20.4233 52.5659 19.96C53.4505 19.838 54.3314 19.6965 55.2085 19.5354C55.7526 19.4661 56.2887 19.3442 56.8092 19.1715C56.8637 19.7176 57.0285 20.2428 57.0397 20.7987L57.0403 20.798ZM28.0534 22.6459C28.2028 23.3701 28.9759 23.7486 29.6799 23.9288C31.1117 24.2562 32.5624 24.4948 34.0237 24.6432C36.8608 24.9978 39.7189 25.1576 42.5779 25.1216C45.4369 25.1576 48.295 24.9978 51.1322 24.6432C52.5935 24.4948 54.0442 24.2562 55.476 23.9288C56.18 23.7493 56.9524 23.3701 57.1025 22.6459C57.8407 24.0307 55.0772 24.5028 54.2015 24.6795C52.8684 24.9447 51.5221 25.1391 50.1684 25.2619C47.6446 25.4994 45.1081 25.5413 42.5744 25.579C40.0408 25.5427 37.5043 25.5001 34.9804 25.2619C33.6267 25.1391 32.2805 24.9447 30.9474 24.6795C30.0786 24.5035 27.3145 24.0314 28.0526 22.6466L28.0534 22.6459ZM28.5799 58.1647C28.7004 57.0522 28.8936 55.9487 29.1582 54.8614C29.606 52.9675 30.3957 51.1712 31.4886 49.5608C32.6371 47.9551 34.1434 46.6384 35.8883 45.7149C37.5644 44.7959 39.4164 44.2882 41.1086 43.4222C41.1327 43.4115 41.1527 43.393 41.1653 43.3698C41.1779 43.3466 41.1825 43.3198 41.1784 43.2937C41.2072 43.2691 41.2308 43.239 41.2479 43.2052C41.2651 43.1714 41.2754 43.1346 41.2783 43.0968C41.3686 42.5841 41.2891 42.0559 41.052 41.5925C41.0593 41.5385 41.0457 41.4837 41.0141 41.4394C40.9824 41.395 40.935 41.3643 40.8816 41.3537C37.1307 40.4565 33.8067 38.2872 31.4753 35.215C29.0751 31.9893 28.2566 28.2314 28.2629 24.2954C28.8367 24.6273 29.4682 24.8474 30.124 24.9442C30.9872 25.1418 31.8594 25.3018 32.7359 25.433C35.8931 25.8349 39.0733 26.029 42.256 26.0141C42.2764 26.0199 42.2976 26.0227 42.3188 26.0225L42.58 26.019L42.8412 26.0225C42.8624 26.0227 42.8836 26.0199 42.9041 26.0141C46.0867 26.029 49.2669 25.8349 52.4242 25.433C53.3006 25.3045 54.1701 25.1446 55.036 24.9442C55.6918 24.8474 56.3234 24.6273 56.8972 24.2954C56.9007 28.2286 56.0829 31.9893 53.6847 35.215C51.3534 38.2873 48.0293 40.4566 44.2785 41.3537C44.225 41.3643 44.1776 41.395 44.146 41.4394C44.1143 41.4837 44.1008 41.5385 44.108 41.5925C43.871 42.056 43.7916 42.5841 43.8818 43.0968C43.8877 43.173 43.9236 43.2439 43.9816 43.2937C43.9775 43.3198 43.9821 43.3466 43.9948 43.3698C44.0074 43.393 44.0273 43.4115 44.0515 43.4222C45.7443 44.2882 47.5957 44.7959 49.2717 45.7149C51.0166 46.6385 52.5229 47.9551 53.6714 49.5608C54.7643 51.1712 55.5541 52.9675 56.0019 54.8614C56.2665 55.9487 56.4596 57.0522 56.5801 58.1647C56.6751 58.9943 56.6716 59.8582 56.8057 60.6858C56.7905 60.7949 56.769 60.9031 56.7415 61.0098C56.7229 61.0662 56.6995 61.1209 56.6716 61.1732C55.7521 61.5307 54.8025 61.8055 53.8342 61.9945C52.582 62.2173 51.3166 62.3814 50.0518 62.5134C47.6345 62.7617 45.2045 62.8655 42.7749 62.8242C42.7574 62.8208 42.7396 62.8194 42.7218 62.82H42.5821H42.4425C42.4247 62.8194 42.4068 62.8208 42.3894 62.8242C39.9597 62.8655 37.5297 62.7617 35.1124 62.5134C33.8477 62.3814 32.5822 62.218 31.3301 61.9945C30.3618 61.8055 29.4122 61.5307 28.4926 61.1732C28.4647 61.1209 28.4413 61.0662 28.4228 61.0098C28.3952 60.9031 28.3738 60.7949 28.3585 60.6858C28.4877 59.8582 28.4842 58.995 28.5792 58.1654L28.5799 58.1647ZM27.8431 61.051C27.8515 61.0426 27.8592 61.0343 27.8683 61.0266C27.8913 61.0077 27.9151 60.9903 27.9381 60.9735C27.9381 60.991 27.9381 61.0084 27.943 61.0259C27.9461 61.0446 27.952 61.0627 27.9605 61.0797C27.9434 61.103 27.9353 61.1317 27.9379 61.1605C27.9405 61.1893 27.9535 61.2162 27.9744 61.2361C28.8575 61.86 29.8817 62.2548 30.9551 62.3849C32.1304 62.6091 33.3225 62.7641 34.5111 62.8996C37.1897 63.2011 39.8851 63.3266 42.58 63.2753C45.275 63.3266 47.9704 63.2011 50.6489 62.8996C51.8362 62.7648 53.0296 62.6091 54.205 62.3849C55.2784 62.2548 56.3026 61.86 57.1856 61.2361C57.2066 61.2162 57.2196 61.1893 57.2222 61.1605C57.2247 61.1317 57.2167 61.103 57.1996 61.0797C57.2081 61.0627 57.214 61.0446 57.2171 61.0259C57.2171 61.0084 57.217 60.991 57.2219 60.9735C57.245 60.9903 57.2687 61.0077 57.2918 61.0266C57.3008 61.0343 57.3085 61.0426 57.3169 61.051C57.4405 62.3402 54.3426 62.5441 53.5108 62.695C52.3469 62.9063 51.176 63.0865 49.9981 63.2355C47.5369 63.5395 45.0592 63.6892 42.5793 63.6838C40.0995 63.6892 37.6217 63.5395 35.1606 63.2355C33.985 63.0884 32.8141 62.9082 31.6478 62.695C30.8168 62.5448 27.716 62.3409 27.8424 61.0517L27.8431 61.051ZM57.2568 66.7951C58.2199 68.1303 55.3573 68.6436 54.5381 68.8112C53.2313 69.0789 51.9151 69.2954 50.5896 69.4607C48.0833 69.7692 45.5588 69.9043 43.034 69.8651C43.0054 69.8545 42.975 69.8495 42.9446 69.8504C42.8231 69.8504 42.7022 69.8546 42.5807 69.8567C42.4592 69.8588 42.3384 69.8567 42.2169 69.8504C42.1864 69.8495 42.1561 69.8545 42.1275 69.8651C39.6026 69.9043 37.0781 69.7692 34.5719 69.4607C33.2482 69.2945 31.9321 69.078 30.6233 68.8112C29.8041 68.6436 26.9422 68.1303 27.9046 66.7951C27.9447 66.8719 27.9897 66.9461 28.0394 67.0171C28.0663 67.052 28.1055 67.0752 28.149 67.0821C28.8257 67.7525 29.9327 67.8922 30.8301 68.041C32.0871 68.2491 33.3504 68.4202 34.6201 68.5542C37.262 68.8633 39.9222 68.9877 42.5814 68.9265C45.2406 68.9877 47.9009 68.8633 50.5428 68.5542C51.811 68.4192 53.0744 68.2481 54.3328 68.041C55.2309 67.8922 56.3378 67.7532 57.0138 67.0821C57.0573 67.0752 57.0965 67.052 57.1235 67.0171C57.1727 66.9461 57.2172 66.8719 57.2568 66.7951ZM28.0485 65.2251C28.078 64.619 28.1593 64.0164 28.2915 63.4241C28.6705 63.5469 29.0558 63.649 29.4459 63.7299C30.8808 64.0724 32.3345 64.331 33.7995 64.5044C36.649 64.8384 39.5149 65.0127 42.3838 65.0268C42.399 65.0294 42.4144 65.0308 42.4299 65.031H42.58H42.7309C42.7463 65.0309 42.7617 65.0294 42.777 65.0268C45.6459 65.0127 48.5118 64.8384 51.3613 64.5044C52.8263 64.331 54.2799 64.0724 55.7149 63.7299C56.1049 63.649 56.4903 63.5469 56.8693 63.4241C57.0014 64.0164 57.0827 64.619 57.1123 65.2251C57.048 65.7764 56.9526 66.3237 56.8266 66.8642C54.598 67.5771 52.2871 68.0013 49.9506 68.1261C47.493 68.3671 45.0445 68.4055 42.58 68.4453C40.1155 68.409 37.667 68.3671 35.2095 68.1261C32.8729 68.0012 30.562 67.5771 28.3334 66.8642C28.2072 66.3232 28.1116 65.7755 28.0471 65.2238L28.0485 65.2251ZM57.5746 62.3458C56.9356 63.2879 54.851 63.4387 53.8635 63.6238C52.5799 63.864 51.283 64.0344 49.9827 64.158C47.5189 64.3927 45.0508 64.422 42.58 64.5414C40.1106 64.422 37.6426 64.3927 35.1774 64.158C33.877 64.0344 32.5809 63.864 31.2966 63.6238C30.3077 63.4387 28.2237 63.2872 27.5854 62.3458C27.6029 62.2061 27.5785 62.0511 27.5854 61.8953C27.591 61.7557 27.6015 61.616 27.6134 61.4763C27.7482 62.0036 28.4333 62.278 28.9717 62.4128C30.5004 62.7962 32.062 63.0874 33.62 63.3207C36.5065 63.7512 39.4206 63.9703 42.3391 63.9765C42.3433 63.9765 42.3461 63.9765 42.3503 63.9765H42.5793H42.8084C42.8126 63.9765 42.8154 63.9765 42.8196 63.9765C45.738 63.9703 48.6521 63.7512 51.5386 63.3207C53.0967 63.0868 54.6582 62.7955 56.187 62.4128C56.7247 62.278 57.4105 62.0036 57.5453 61.4763C57.5565 61.616 57.5676 61.7557 57.5732 61.8953C57.5802 62.0462 57.5557 62.2019 57.5732 62.3444L57.5746 62.3458Z" fill="#323232"/>
</g>
<g id="Grupo 195">
<path id="Caminho 425" d="M42.3026 42.8642C42.1562 43.8908 42.172 44.9341 42.3494 45.9558C42.3545 45.9789 42.3654 46.0003 42.381 46.018C42.3967 46.0357 42.4165 46.0491 42.4388 46.0571C42.4996 46.4244 43.0715 46.4817 43.3257 46.1507C43.4663 45.8833 43.5074 45.5747 43.4416 45.2798C43.448 44.8221 43.3865 44.3661 43.2594 43.9264C43.2594 43.9264 43.2594 43.9264 43.2594 43.9215C43.382 42.981 43.4378 42.0331 43.4263 41.0847C45.0521 39.343 47.3923 38.8758 49.3973 37.676C51.2088 36.5915 53.7076 34.8393 53.8605 32.5137C53.912 32.054 53.8185 31.5897 53.5931 31.1858C53.3677 30.7818 53.0217 30.4584 52.6035 30.2608C51.5857 29.9106 50.4716 29.9705 49.4972 30.4277C48.089 30.9668 46.6036 31.2768 45.0974 31.346C43.6063 31.3987 42.1137 31.3016 40.6419 31.0562C38.2102 30.6372 34.6925 29.466 32.5723 31.3572C31.5136 31.6526 31.4458 33.0703 31.9368 33.9614C32.7748 35.4866 34.4663 36.713 35.8804 37.6718C36.6807 38.2145 37.5193 38.6984 38.3897 39.1195C39.2026 39.5127 40.0755 39.7858 40.871 40.2125C41.3575 40.4486 41.7574 40.8316 42.0144 41.3075C42.2713 41.7833 42.3721 42.3279 42.3026 42.8642ZM39.0147 38.806C37.4386 38.0775 35.9619 37.1507 34.6206 36.0481C33.9751 35.5347 33.3682 34.9745 32.8048 34.3721C32.2043 33.7086 31.7168 32.439 32.4208 31.7811C32.413 32.0382 32.4757 32.2924 32.6021 32.5164C32.7285 32.7403 32.9138 32.9253 33.138 33.0514C33.7221 33.3113 34.3535 33.4483 34.9928 33.4537C35.8369 33.5656 36.6951 33.5028 37.5139 33.2693C37.5412 33.2603 37.537 33.2156 37.5062 33.2177C36.6344 33.3176 35.7526 33.288 34.8895 33.1297C34.5319 33.0486 34.1792 32.9439 33.8314 32.8287C33.6031 32.778 33.3865 32.6844 33.1931 32.5528C32.9389 32.3384 32.7455 31.6959 33.0486 31.4312C33.9414 31.0682 34.8897 30.8606 35.8525 30.8174C37.2489 30.8223 38.6411 30.969 40.0078 31.2553C42.3236 31.6743 44.6309 32.1233 46.9858 31.7343C48.194 31.5353 49.2702 31.0094 50.4434 30.707C50.8388 30.5817 51.258 30.5508 51.6674 30.6168C52.0769 30.6828 52.4651 30.8438 52.8011 31.087C53.3598 32.2365 50.6634 32.9076 49.9378 33.048C48.6745 33.2656 47.3898 33.3317 46.1108 33.2449C43.4968 33.1185 40.9624 32.638 38.3387 32.8622C38.3274 32.8622 38.3165 32.8667 38.3086 32.8747C38.3006 32.8827 38.2961 32.8935 38.2961 32.9048C38.2961 32.9161 38.3006 32.9269 38.3086 32.9349C38.3165 32.9429 38.3274 32.9474 38.3387 32.9474C41.7244 33.1297 45.0863 33.9649 48.4922 33.6981C49.7919 33.5962 51.389 33.4111 52.4882 32.6506C52.6742 32.5297 52.8312 32.3693 52.9483 32.1809C53.0654 31.9925 53.1396 31.7807 53.1657 31.5604C53.3298 31.9237 53.3774 32.329 53.3018 32.7204C53.1091 33.9663 52.1551 34.9454 51.2326 35.7304C50.2703 36.5489 49.2131 37.2488 48.0837 37.815C46.5899 38.5643 44.2364 39.0902 43.3851 40.709C43.371 40.7088 43.3573 40.7128 43.3456 40.7205C43.3339 40.7283 43.3247 40.7393 43.3194 40.7523C42.8992 41.7764 42.8125 42.9068 43.0715 43.9829C43.0987 44.307 43.1679 44.6254 43.1867 44.9509C43.2086 45.1462 43.2058 45.3436 43.1784 45.5382L43.1434 45.6548C43.1081 45.8806 42.9644 45.9395 42.7126 45.8315C42.7076 45.8128 42.6981 45.7955 42.685 45.7813C42.6718 45.767 42.6554 45.7562 42.6371 45.7498C42.4206 44.1526 43.0659 42.5192 42.3794 40.9723C41.8033 39.6803 40.1782 39.3402 39.0147 38.806Z" fill="#323232"/>
<path id="Caminho 426" d="M43.4668 47.6857C43.4192 47.5509 43.33 47.4347 43.2122 47.3538C43.0944 47.2728 42.9539 47.2313 42.8111 47.2352C42.7836 47.2407 42.757 47.2501 42.7321 47.2632C42.7168 47.2522 42.6978 47.2476 42.6791 47.2502C42.6604 47.2528 42.6434 47.2624 42.6316 47.2771C42.417 47.6074 42.3364 48.0069 42.406 48.3945C42.4332 48.6508 42.501 48.9595 42.7727 49.0615C43.5199 49.3415 43.6575 48.1277 43.4668 47.6857ZM43.0143 48.7032C42.686 48.8233 42.7384 47.9895 42.7692 47.5628C42.8416 47.5821 42.9118 47.609 42.9787 47.6431C43.0402 47.6893 43.0905 47.7487 43.126 47.817C43.1614 47.8853 43.181 47.9607 43.1833 48.0376C43.198 48.1983 43.2126 48.6299 43.0143 48.7032Z" fill="#323232"/>
<path id="Caminho 427" d="M43.2797 50.5329C43.277 50.5042 43.2642 50.4774 43.2434 50.4574C43.2226 50.4374 43.1953 50.4255 43.1665 50.424C43.1525 50.4164 43.1371 50.4119 43.1212 50.4107C43.1053 50.4095 43.0894 50.4117 43.0744 50.417C43.0115 50.4429 42.9473 50.468 42.8851 50.4959C42.8717 50.4957 42.8583 50.4986 42.8462 50.5044C42.8341 50.5103 42.8235 50.5188 42.8153 50.5294L42.795 50.5385C42.7793 50.5471 42.7657 50.5591 42.7552 50.5736C42.7448 50.5881 42.7377 50.6048 42.7344 50.6224C42.7312 50.64 42.732 50.6581 42.7367 50.6753C42.7414 50.6926 42.7498 50.7086 42.7615 50.7222C42.5429 51.7313 41.9877 55.5178 43.073 55.4117C43.6463 55.3558 43.5185 54.3753 43.5297 54.015C43.5623 52.8489 43.4785 51.6824 43.2797 50.5329ZM42.9214 54.6721C42.7371 54.5583 42.8823 52.8208 42.8865 52.6217C42.8998 51.9981 42.9654 51.3731 42.9731 50.7501L43.001 50.7403C43.1191 51.4446 43.1931 52.1555 43.2224 52.869C43.235 53.2051 43.2366 53.5413 43.2273 53.8774C43.2231 54.0129 43.3041 54.9096 42.9214 54.6728V54.6721Z" fill="#323232"/>
<path id="Caminho 428" d="M29.8662 60.5754C30.0752 60.8321 30.3584 61.018 30.677 61.1076C31.8047 61.4037 32.9572 61.5956 34.12 61.6809C36.3179 61.9727 38.5292 62.1536 40.7454 62.2229C43.136 62.3006 45.5291 62.2432 47.9133 62.0511C49.0051 61.9617 50.0941 61.8425 51.1803 61.6935C52.1192 61.6232 53.0461 61.4395 53.9409 61.1467C55.5905 60.4825 55.5472 59.0034 54.779 57.6129C53.9409 56.0919 52.7893 54.9207 50.9645 54.8998C46.3777 54.8481 41.802 57.1395 37.22 55.8545C35.31 55.3188 33.2673 54.1868 31.2965 55.1498C29.2712 56.1408 29.3341 58.5718 29.6763 60.4783C29.6809 60.4981 29.6898 60.5166 29.7023 60.5326C29.7148 60.5486 29.7306 60.5617 29.7487 60.571C29.7668 60.5802 29.7867 60.5854 29.807 60.5862C29.8273 60.5869 29.8475 60.5833 29.8662 60.5754ZM30.3551 56.8042C31.6354 56.2683 33.0629 56.1971 34.3902 56.6031C35.831 56.96 37.2095 57.754 38.688 57.9188C38.7375 57.9244 38.741 57.849 38.6977 57.835C37.8269 57.5634 36.97 57.3036 36.1194 56.9656C35.2965 56.5678 34.4361 56.2529 33.5508 56.0256C32.5818 55.816 31.5716 55.9149 30.6617 56.3084C30.9867 55.9002 31.4283 55.6006 31.9278 55.4494C33.6919 54.8747 35.4713 55.6778 37.1348 56.1883C40.6001 57.2512 43.8852 56.2581 47.3225 55.6463C48.9986 55.3495 51.1258 54.9221 52.6608 55.881C52.885 56.2819 52.158 56.6087 51.8451 56.6317C51.5993 56.6499 51.3437 56.6317 51.0979 56.6275C50.6223 56.6275 50.146 56.6401 49.6711 56.6751C48.6526 56.7524 47.6427 56.918 46.6528 57.1702C44.578 57.6961 42.3718 58.6186 40.2216 57.9119C40.1594 57.8916 40.1168 57.9936 40.1783 58.0201C43.1002 59.2597 46.1584 57.5263 49.111 57.224C49.9073 57.1509 50.7069 57.1199 51.5064 57.1311C51.9878 57.1908 52.4738 57.0661 52.8669 56.7819C53.0109 56.6303 53.1002 56.4349 53.1204 56.2267C53.6724 56.7682 54.1234 57.4039 54.4521 58.1039C54.6334 58.3658 54.7498 58.667 54.7915 58.9828C54.8333 59.2985 54.7993 59.6197 54.6924 59.9197C54.4405 60.3135 54.05 60.5983 53.598 60.7179C52.8064 60.9492 51.9937 61.101 51.1719 61.1711C50.1854 61.3071 49.1955 61.4179 48.2025 61.5035C46.3662 61.6628 44.5256 61.7393 42.6805 61.7333C40.5854 61.7291 38.4938 61.6202 36.4092 61.4253C35.2918 61.3206 34.1744 61.1956 33.0571 61.0447C32.2511 60.9358 30.5059 60.9595 29.9647 60.176C29.8246 59.0372 29.9574 57.8815 30.3523 56.8042H30.3551Z" fill="#323232"/>
<path id="Caminho 354" d="M64.7432 65.7943L42.5003 43.5514L20.2575 65.7943C20.2002 65.9001 20.119 65.9912 20.0203 66.0602C19.9217 66.1292 19.8081 66.1742 19.689 66.1917C19.5699 66.2091 19.4484 66.1985 19.3341 66.1608C19.2197 66.123 19.1158 66.0591 19.0306 65.9741C18.9453 65.8891 18.881 65.7854 18.8428 65.6712C18.8047 65.557 18.7937 65.4355 18.8108 65.3164C18.8279 65.1972 18.8726 65.0836 18.9412 64.9847C19.0099 64.8859 19.1007 64.8043 19.2064 64.7467L41.45 42.5038L19.2064 20.2609C19.0246 20.1187 18.9048 19.9118 18.8722 19.6834C18.8395 19.4549 18.8964 19.2227 19.0311 19.0353C19.2185 18.9005 19.4508 18.8435 19.6793 18.876C19.9079 18.9085 20.1151 19.0282 20.2575 19.2099L42.5003 41.4528L64.7432 19.2099C64.8856 19.0282 65.0927 18.9085 65.3212 18.876C65.5498 18.8435 65.782 18.9005 65.9695 19.0353C66.1041 19.2227 66.161 19.4549 66.1284 19.6834C66.0957 19.9118 65.976 20.1187 65.7942 20.2609L43.5514 42.5038L65.7942 64.7467C65.976 64.889 66.0959 65.0961 66.1286 65.3246C66.1612 65.5532 66.1041 65.7855 65.9695 65.973C65.9092 66.031 65.838 66.0764 65.7599 66.1065C65.6819 66.1366 65.5986 66.1508 65.5149 66.1483C65.2214 66.1355 64.9444 66.0084 64.7432 65.7943Z" fill="#FF6600"/>
</g>
</g>
</g>
</g>
</g>
</g>
</g>
</g>
</g>
<defs>
<clipPath id="clip0_3_1291">
<rect width="85" height="83.6033" fill="white" transform="translate(0 0.698364)"/>
</clipPath>
</defs>
</svg>
