<svg width="85" height="85" viewBox="0 0 85 85" fill="none" xmlns="http://www.w3.org/2000/svg">
<g id="icon-mal-dimensionados.svg" clip-path="url(#clip0_3_1361)">
<g id="Grupo 198">
<path id="Ret&#195;&#162;ngulo 306" d="M69.4167 0H15.5833C6.9769 0 0 6.9769 0 15.5833V69.4167C0 78.0231 6.9769 85 15.5833 85H69.4167C78.0231 85 85 78.0231 85 69.4167V15.5833C85 6.9769 78.0231 0 69.4167 0Z" fill="#FBE2D1"/>
<g id="Grupo 183">
<path id="Uni&#195;&#163;o 4" d="M64.0658 72.3138C64.0033 72.3137 63.9422 72.295 63.8903 72.2602C63.8383 72.2254 63.7978 72.1761 63.7739 72.1183L58.1002 58.2569C57.4627 58.378 56.8252 58.4758 56.2089 58.5488C56.1068 58.5792 56.0015 58.598 55.8951 58.6047C55.6288 58.6401 55.2243 58.667 54.6088 58.6904C53.6688 58.7612 52.7006 58.7995 51.6933 58.7995C51.4447 58.7995 51.189 58.7896 50.9368 58.7853L48.2203 72.0616C48.2057 72.1329 48.1669 72.1969 48.1105 72.2428C48.0541 72.2887 47.9835 72.3138 47.9108 72.3138H47.0367C46.9935 72.3137 46.9508 72.3047 46.9112 72.2875C46.8715 72.2702 46.8359 72.245 46.8064 72.2134C46.7769 72.1818 46.7542 72.1444 46.7398 72.1037C46.7253 72.063 46.7193 72.0197 46.7222 71.9766L47.6261 58.7308L47.5 58.7265L47.2011 58.7145L46.9475 58.7039L46.6868 58.6904L46.4198 58.6748C46.3447 58.6706 46.2675 58.6656 46.1952 58.6607C46.067 58.6522 45.9416 58.6423 45.8184 58.6323L45.7376 58.6267C44.6213 58.531 43.2018 58.383 41.7802 58.1223L36.0519 72.1183C36.0281 72.1757 35.988 72.2249 35.9365 72.2596C35.8849 72.2944 35.8243 72.3132 35.7622 72.3138H34.8853C34.8368 72.3136 34.789 72.3023 34.7456 72.2807C34.7021 72.2591 34.6643 72.2279 34.6348 72.1894C34.6054 72.1508 34.5852 72.106 34.5758 72.0585C34.5664 72.0109 34.5681 71.9618 34.5807 71.915L38.5806 57.2575C36.9668 56.6976 35.6088 55.5747 34.7556 54.0947C34.7273 54.0402 34.6926 53.9899 34.6657 53.9354C34.599 53.7952 34.5401 53.6514 34.4893 53.5047C34.4773 53.47 34.4645 53.4339 34.4532 53.4006C34.4072 53.2577 34.3686 53.1125 34.3377 52.9657C34.3299 52.9324 34.325 52.8948 34.3186 52.8651C34.2539 52.522 34.2285 52.1727 34.2428 51.8238C32.8906 44.7058 31.537 35.9416 32.7411 34.5086C34.405 32.5295 41.9835 32.8299 45.4394 34.1261C45.4551 34.1322 45.4703 34.1395 45.4848 34.1481C48.0928 35.6434 49.6441 40.176 51.1436 44.5606C52.1948 47.6326 53.1893 50.5389 54.402 51.8217H54.6853L54.7285 51.7785C55.7839 50.7217 56.9789 49.5239 58.4508 48.166C64.3711 43.3444 67.6365 45.0253 68.4964 45.6557C70.0151 46.7678 70.4535 48.8616 69.612 50.9873C69.5617 51.1155 69.5058 51.243 69.4463 51.3712C68.5799 53.1407 67.1967 54.6055 65.4796 55.5716C64.1708 56.3758 62.7651 57.0101 61.2962 57.4593L65.2423 71.9207C65.255 71.9675 65.2568 72.0166 65.2475 72.0643C65.2382 72.1119 65.218 72.1567 65.1885 72.1953C65.1591 72.2339 65.1211 72.2651 65.0776 72.2867C65.0341 72.3082 64.9863 72.3194 64.9377 72.3195L64.0658 72.3138ZM60.1898 57.7752C59.9128 57.8461 59.6273 57.9169 59.3398 57.9821C59.1379 58.0303 58.9353 58.0862 58.7334 58.1294L64.2776 71.6834H64.5269L60.6955 57.6357C60.5276 57.6825 60.3605 57.7292 60.1898 57.7752ZM47.3746 71.6834H47.653L50.2943 58.774C50.2001 58.774 50.1088 58.774 50.011 58.769H49.9728C49.56 58.769 49.1653 58.766 48.7884 58.7598H48.6928L48.2536 58.7513L47.3746 71.6834ZM35.2982 71.6834H35.5497L41.1455 57.997C40.4787 57.8596 39.82 57.6848 39.1728 57.4735L35.2982 71.6834ZM35.9598 49.5657C35.6318 49.829 35.3647 50.1602 35.1767 50.5366C34.9888 50.9129 34.8845 51.3255 34.8711 51.7459C34.8491 52.092 34.8729 52.4395 34.9419 52.7794C34.9712 52.9244 35.0085 53.0678 35.0538 53.2086C35.0609 53.2292 35.068 53.2483 35.0751 53.2681C35.1199 53.4011 35.1729 53.5313 35.2338 53.6577C35.9959 55.053 37.2462 56.1178 38.745 56.6483C38.8456 56.6887 38.9447 56.7283 39.0411 56.7638C39.063 56.7715 39.0864 56.7822 39.1119 56.79C39.187 56.8169 39.2677 56.8388 39.3442 56.8643C40.0161 57.0852 40.7006 57.2654 41.3941 57.4041C41.499 57.4253 41.6031 57.4487 41.7086 57.4685C41.8142 57.4884 41.9211 57.5061 42.0267 57.5252C43.0764 57.7122 44.1233 57.8404 45.0385 57.929C45.2425 57.9488 45.4345 57.9658 45.6236 57.9821L45.7943 57.9977C46.361 58.0458 47.0098 58.0798 47.6983 58.1018C48.4506 58.1259 49.251 58.1365 50.0478 58.1379C50.373 58.1379 50.6974 58.1379 51.0168 58.1337H51.2733C51.9816 58.1259 52.6673 58.1124 53.2835 58.0954C52.0556 57.8159 50.8651 57.392 49.7369 56.8325C49.6264 56.7765 49.5173 56.7198 49.4096 56.6618C49.302 56.6037 49.1851 56.5399 49.076 56.4762C48.8855 56.365 48.6978 56.2509 48.5171 56.1319C47.2794 55.2714 46.1052 54.3229 45.0038 53.2936C44.6588 52.9862 44.3132 52.6781 43.964 52.3728C42.7463 51.3181 41.0782 49.8731 39.3357 49.2561C38.8541 49.0852 38.3472 48.9966 37.8362 48.994C37.1654 48.9744 36.5066 49.1749 35.9605 49.565L35.9598 49.5657ZM45.4515 52.8275C46.5317 53.837 47.6828 54.7678 48.8961 55.6127C49.0031 55.6835 49.1171 55.7544 49.2333 55.8252C49.2743 55.85 49.3154 55.8748 49.3572 55.896C49.4791 55.9669 49.603 56.0377 49.7319 56.1085C49.8028 56.1447 49.8608 56.1794 49.931 56.2176C49.9728 56.2396 50.0181 56.258 50.0599 56.2793C50.1683 56.3345 50.2788 56.3862 50.39 56.4379C51.2176 56.82 52.0779 57.1268 52.9605 57.3545L53.1773 57.414C53.2587 57.4367 53.3402 57.4572 53.4216 57.4785C53.4677 57.4905 53.5123 57.5033 53.5583 57.5139C54.3528 57.6933 55.1569 57.8271 55.9667 57.9148C56.0028 57.919 56.0375 57.9254 56.0736 57.929H56.0928C56.3704 57.8928 56.6353 57.8489 56.8946 57.8008C57.2195 57.7413 57.529 57.6718 57.8232 57.5925C57.9266 57.5642 58.0301 57.538 58.1299 57.5082C58.2298 57.4785 58.3318 57.4438 58.4303 57.4098C58.8796 57.262 59.3135 57.0708 59.7258 56.8388C59.9459 56.7129 60.1564 56.5709 60.3555 56.4138C60.4483 56.343 60.5361 56.2644 60.6204 56.1857C60.7047 56.1071 60.7961 56.015 60.8768 55.9258C61.1983 55.5727 61.4437 55.1572 61.5979 54.7053C61.6806 54.4581 61.7025 54.1946 61.6617 53.9371C61.6209 53.6797 61.5186 53.4359 61.3635 53.2263C61.1949 52.9913 60.9729 52.7996 60.7158 52.6671C60.4587 52.5346 60.1737 52.465 59.8845 52.4642H45.0413C45.1788 52.5832 45.3159 52.7041 45.4529 52.8268L45.4515 52.8275ZM58.8673 48.6385C57.5973 49.8129 56.5241 50.8754 55.57 51.826H59.8866C60.2761 51.8268 60.6598 51.9201 61.0061 52.0983C61.3524 52.2765 61.6514 52.5345 61.8784 52.8509C62.0924 53.1417 62.2332 53.4797 62.2889 53.8364C62.3447 54.1931 62.3137 54.5579 62.1986 54.9001C61.9731 55.5599 61.5859 56.1527 61.0723 56.6242C60.9881 56.7035 60.9002 56.7815 60.8081 56.8565C60.7373 56.9132 60.6665 56.9656 60.5907 57.0195L60.8329 56.9486C60.9335 56.9182 61.0369 56.8898 61.1354 56.8587C62.0031 56.588 62.8504 56.2554 63.6705 55.8635C66.5619 54.4688 68.3002 52.6051 69.0326 50.7507C69.765 48.8963 69.4108 47.0971 68.1302 46.1607C67.4501 45.6944 66.6387 45.4578 65.8146 45.4857C64.0672 45.485 61.7056 46.325 58.8694 48.6378L58.8673 48.6385ZM39.544 48.659C41.3623 49.305 43.0474 50.7479 44.2969 51.8288H53.5931C52.4491 50.3165 51.5219 47.61 50.5472 44.7625C49.1575 40.7009 47.5828 36.0988 45.1936 34.7084C43.0387 34.0202 40.7866 33.6853 38.5247 33.7167C36.093 33.7167 33.9156 34.09 33.2249 34.911C32.4847 35.7921 33.0124 41.6352 34.6012 50.2917C34.8202 49.806 35.1567 49.3825 35.5801 49.0592C36.2362 48.5831 37.0299 48.3344 37.8404 48.3509C38.4223 48.3555 38.9992 48.4595 39.5461 48.6583L39.544 48.659ZM32.6767 72.3173C32.6141 72.3172 32.5529 72.2985 32.5009 72.2636C32.449 72.2287 32.4086 72.1791 32.3848 72.1211L27.9528 61.2843H20.4282L15.9947 72.1176C15.9709 72.1756 15.9303 72.2252 15.8783 72.2601C15.8262 72.2951 15.7649 72.3137 15.7022 72.3138H14.8281C14.7796 72.3138 14.7317 72.3025 14.6882 72.281C14.6447 72.2595 14.6068 72.2282 14.5773 72.1896C14.5478 72.1511 14.5277 72.1062 14.5183 72.0586C14.509 72.011 14.5108 71.9618 14.5235 71.915L17.4234 61.2843H15.7348C15.6933 61.2844 15.6522 61.2763 15.6139 61.2605C15.5756 61.2447 15.5408 61.2215 15.5114 61.1923C15.4821 61.163 15.4588 61.1282 15.4429 61.0899C15.427 61.0516 15.4188 61.0106 15.4188 60.9691V53.5635C15.4188 53.4797 15.4521 53.3994 15.5114 53.3401C15.5706 53.2809 15.651 53.2476 15.7348 53.2476H32.6455C32.687 53.2475 32.7281 53.2556 32.7665 53.2714C32.8049 53.2873 32.8398 53.3106 32.8691 53.3399C32.8985 53.3693 32.9217 53.4041 32.9376 53.4425C32.9534 53.4809 32.9615 53.522 32.9614 53.5635V60.9691C32.9614 61.0106 32.9533 61.0516 32.9374 61.0899C32.9215 61.1282 32.8982 61.163 32.8689 61.1923C32.8395 61.2215 32.8047 61.2447 32.7664 61.2605C32.728 61.2763 32.687 61.2844 32.6455 61.2843H30.9568L33.861 71.915C33.8737 71.9618 33.8755 72.011 33.8662 72.0586C33.8569 72.1062 33.8367 72.1511 33.8072 72.1896C33.7778 72.2282 33.7398 72.2595 33.6963 72.281C33.6528 72.3025 33.605 72.3138 33.5564 72.3138L32.6767 72.3173ZM32.8892 71.6862H33.1413L30.3045 61.2879H28.6349L32.8892 71.6862ZM15.2418 71.6834H15.4904L19.7453 61.285H18.0786L15.2418 71.6834ZM16.0507 60.6532H32.3296V53.8787H16.0507V60.6532ZM23.2119 55.4172C23.2118 55.2237 23.269 55.0345 23.3764 54.8736C23.4838 54.7126 23.6366 54.5871 23.8153 54.513C23.994 54.4388 24.1907 54.4193 24.3805 54.457C24.5703 54.4947 24.7447 54.5878 24.8816 54.7246C25.0185 54.8613 25.1117 55.0356 25.1495 55.2254C25.1873 55.4152 25.168 55.6119 25.094 55.7907C25.0199 55.9695 24.8946 56.1223 24.7337 56.2298C24.5728 56.3373 24.3836 56.3947 24.1901 56.3947C23.9309 56.3943 23.6825 56.2913 23.4991 56.108C23.3158 55.9248 23.2125 55.6764 23.2119 55.4172ZM23.8438 55.4172C23.8438 55.4857 23.8641 55.5527 23.9021 55.6096C23.9402 55.6666 23.9943 55.711 24.0576 55.7372C24.1209 55.7634 24.1905 55.7703 24.2577 55.7569C24.3249 55.7436 24.3866 55.7106 24.4351 55.6621C24.4835 55.6137 24.5165 55.552 24.5299 55.4848C24.5432 55.4176 24.5364 55.3479 24.5101 55.2847C24.4839 55.2214 24.4395 55.1673 24.3826 55.1292C24.3256 55.0911 24.2586 55.0708 24.1901 55.0708C24.0983 55.0708 24.0102 55.1073 23.9452 55.1723C23.8803 55.2372 23.8438 55.3253 23.8438 55.4172ZM53.1539 43.8969C53.1446 43.8774 53.1365 43.8572 53.1298 43.8367C53.1263 43.8218 53.1163 43.8105 53.1135 43.7949C53.1107 43.7793 53.1135 43.7708 53.1135 43.7595C53.1135 43.7481 53.1135 43.7517 53.1135 43.7467L53.0668 40.3935C52.022 39.9833 51.2605 39.5087 51.2704 39.0002C51.2704 38.9952 51.2704 38.991 51.2704 38.986L51.1649 33.9611C51.1649 32.7923 55.1025 32.4601 57.3982 32.3659C57.3982 32.3255 57.3862 32.2866 57.3862 32.2462C57.3866 31.872 57.5166 31.5094 57.7541 31.2202C57.9915 30.931 58.3218 30.7329 58.6888 30.6595V15.8993C58.6888 15.8155 58.7221 15.7351 58.7813 15.6759C58.8406 15.6167 58.9209 15.5834 59.0047 15.5834C59.0885 15.5834 59.1689 15.6167 59.2281 15.6759C59.2874 15.7351 59.3206 15.8155 59.3206 15.8993V30.6602C59.6876 30.7336 60.0179 30.9317 60.2554 31.2209C60.4928 31.5101 60.6228 31.8727 60.6233 32.2469C60.6233 32.2873 60.6141 32.3263 60.6112 32.3666C62.9091 32.4608 66.8446 32.7916 66.8446 33.9554L66.7404 41.4205C66.7437 41.4619 66.7418 41.5036 66.7348 41.5445C66.7348 41.5445 66.7348 41.5502 66.7348 41.553C66.7278 41.5884 66.7149 41.6225 66.6965 41.6536C66.5109 42.0906 65.7126 42.2826 64.6813 42.3336C64.2358 42.6949 63.7212 42.9615 63.169 43.117C61.8821 43.5456 60.5624 43.8682 59.2229 44.0818C57.914 44.3093 56.59 44.44 55.2619 44.4727C54.2143 44.4727 53.3451 44.3304 53.1539 43.8969ZM61.0631 41.8498C60.674 41.8866 60.2509 41.9367 59.7938 42C59.5041 42.041 59.2038 42.0864 58.8871 42.1416C57.4623 42.3565 56.0624 42.7124 54.708 43.2041C54.3787 43.3149 54.0682 43.4752 53.7871 43.6794C54.1191 43.7802 54.4645 43.8296 54.8114 43.826C56.2521 43.8455 57.6912 43.7218 59.1074 43.457C60.5323 43.2423 61.9322 42.8864 63.2866 42.3945C63.3348 42.3761 63.3808 42.357 63.4283 42.3385C63.6405 42.2539 63.846 42.1532 64.0431 42.0375C64.1016 42.0026 64.1571 41.9628 64.2088 41.9185C63.8769 41.8176 63.5315 41.7681 63.1846 41.7719C63.0505 41.7662 62.9046 41.7634 62.7468 41.7634C62.2843 41.7627 61.7212 41.7882 61.0631 41.8498ZM53.8466 38.7544C53.7857 38.7544 53.7276 38.7544 53.6703 38.7544L53.6873 39.95L53.6915 40.2893L53.6965 40.6208L53.7291 42.9718C55.0473 42.3501 56.4458 41.9153 57.8841 41.6798C58.261 41.6047 58.5648 41.5502 58.7511 41.519L58.7823 41.514C58.9799 41.4808 59.3376 41.4227 59.7818 41.3618C61.1106 41.1797 63.2271 40.9693 64.2698 41.2909L64.2861 40.5075V40.504C63.6811 40.2915 62.9338 40.0669 62.0428 39.8466C61.9401 39.8204 61.8303 39.7956 61.7226 39.7701C61.6149 39.7446 61.5101 39.7191 61.4017 39.6943C61.1998 39.6483 60.9909 39.6037 60.7777 39.5583L60.7068 39.5428C60.2238 39.4429 59.7088 39.3451 59.1634 39.253C58.618 39.161 58.0931 39.0823 57.6008 39.0172L57.525 39.008C57.3068 38.9803 57.0936 38.9534 56.8875 38.9307L56.7657 38.9187C56.5787 38.8982 56.3945 38.879 56.2174 38.8628L56.0758 38.8507C55.91 38.8365 55.7457 38.8224 55.5898 38.811L55.4482 38.8018C55.3001 38.7926 55.1528 38.7827 55.0133 38.7763C54.9601 38.7763 54.9113 38.7721 54.8603 38.77C54.7306 38.7643 54.6017 38.7593 54.4799 38.7558H54.3283C54.2136 38.7558 54.0995 38.7523 53.9926 38.7523L53.8466 38.7544ZM64.8924 41.6904C65.3084 41.7042 65.7215 41.6172 66.0966 41.4368C65.764 41.1136 65.3578 40.8763 64.9129 40.7455L64.8924 41.6904ZM58.9424 38.5801L59.2399 38.6276L59.2668 38.6325C59.3306 38.6432 59.6798 38.7034 60.1954 38.8047H60.2004C60.4462 38.8528 60.7302 38.9116 61.0383 38.9782L61.1028 38.9917L61.2933 39.0335L61.3798 39.0526L61.576 39.0972L61.6468 39.1142C61.8026 39.1501 61.9611 39.1876 62.1221 39.2268H62.1263L62.3119 39.2729L62.4373 39.304L62.6165 39.3501L62.7497 39.3855L62.9282 39.433L63.0698 39.4712L63.3107 39.542L63.5288 39.6051C63.5806 39.62 63.6308 39.6355 63.6818 39.6518L63.8391 39.7L63.9942 39.7489L64.1479 39.7985L64.296 39.8473L64.4546 39.9019L64.5906 39.95L64.6069 39.9557C64.6912 39.9862 64.7741 40.0173 64.8548 40.0478L64.9207 40.074L64.9696 40.0931C65.0227 40.1137 65.0766 40.1349 65.1276 40.1569L65.2466 40.2079L65.3882 40.2709L65.4987 40.3219C65.5483 40.3453 65.5958 40.3687 65.6404 40.3928C65.6708 40.4076 65.7027 40.4232 65.7325 40.4381C65.8033 40.4756 65.8741 40.5139 65.9379 40.5514L66.0009 40.5911C66.0363 40.613 66.0718 40.6343 66.1065 40.6562L66.2007 33.9512C66.0434 33.653 64.0013 33.1054 60.4221 32.985C60.3066 32.9807 60.1891 32.9779 60.0679 32.9758C59.9319 32.9722 59.7973 32.9687 59.6585 32.9666C59.4389 32.9666 59.2172 32.9609 58.9877 32.9609C58.7582 32.9609 58.5365 32.9609 58.3169 32.9666C58.1753 32.9666 58.0421 32.9722 57.9075 32.9758L57.5533 32.985C53.9741 33.1054 51.9313 33.6558 51.7698 33.9809L51.8661 38.3506V38.3697C52.239 38.2521 52.6253 38.1819 53.0158 38.1608C53.1199 38.153 53.2212 38.1424 53.3317 38.1374C53.4422 38.1325 53.5442 38.1318 53.6469 38.1303C53.7496 38.1289 53.8488 38.1232 53.955 38.1232C55.6269 38.1605 57.2943 38.3132 58.9452 38.5801H58.9424ZM53.0313 38.7863C52.9605 38.7919 52.8861 38.7969 52.8188 38.804L52.7034 38.8174C52.6432 38.8245 52.5844 38.8316 52.5306 38.8394C52.4937 38.845 52.4597 38.8514 52.4271 38.8571C52.3797 38.8649 52.3329 38.8741 52.2918 38.8826C52.2508 38.8911 52.2338 38.8968 52.2061 38.9038C52.1785 38.9109 52.1353 38.9223 52.1048 38.9322C52.0744 38.9421 52.0602 38.9485 52.0397 38.957C52.0155 38.9657 51.9919 38.9759 51.9688 38.9874C51.9539 38.9951 51.9397 39.0041 51.9263 39.0143C51.9165 39.0214 51.907 39.0289 51.898 39.037C52.2213 39.3505 52.6151 39.582 53.0462 39.712L53.0335 38.7855L53.0313 38.7863ZM58.9955 32.3284C59.0281 32.3284 59.1414 32.3284 59.3114 32.3284C59.4814 32.3284 59.7038 32.334 59.9723 32.3418C59.9723 32.3085 59.9829 32.2774 59.9829 32.2434C59.9829 31.9815 59.8789 31.7303 59.6937 31.5452C59.5085 31.36 59.2574 31.256 58.9955 31.256C58.7336 31.256 58.4825 31.36 58.2973 31.5452C58.1121 31.7303 58.0081 31.9815 58.0081 32.2434C58.0098 32.2764 58.0133 32.3092 58.0187 32.3418C58.2872 32.334 58.5146 32.3298 58.6796 32.3284C58.8446 32.327 58.9629 32.3284 58.9955 32.3284Z" fill="#323232"/>
<path id="Caminho 354" d="M65.0753 69.7234L42.5148 47.163L19.9545 69.7234C19.8964 69.8308 19.814 69.9232 19.714 69.9931C19.6139 70.0631 19.4988 70.1088 19.378 70.1265C19.2571 70.1442 19.1338 70.1335 19.0179 70.0952C18.902 70.0569 18.7966 69.992 18.7101 69.9058C18.6236 69.8196 18.5584 69.7144 18.5197 69.5986C18.481 69.4828 18.4699 69.3596 18.4872 69.2387C18.5045 69.1178 18.5498 69.0027 18.6195 68.9024C18.6891 68.802 18.7812 68.7194 18.8884 68.6609L41.4496 46.1005L18.8884 23.5401C18.704 23.3959 18.5826 23.186 18.5494 22.9543C18.5163 22.7226 18.5741 22.4871 18.7106 22.297C18.9007 22.1603 19.1363 22.1024 19.3681 22.1354C19.5999 22.1684 19.8101 22.2897 19.9545 22.474L42.5148 45.0345L65.0753 22.474C65.2197 22.2897 65.4297 22.1684 65.6616 22.1354C65.8934 22.1024 66.1289 22.1603 66.319 22.297C66.4556 22.4871 66.5134 22.7226 66.4802 22.9543C66.4471 23.186 66.3256 23.3959 66.1413 23.5401L43.581 46.1005L66.1413 68.6609C66.3257 68.8052 66.4473 69.0153 66.4804 69.2471C66.5135 69.4789 66.4556 69.7145 66.319 69.9048C66.2579 69.9636 66.1857 70.0096 66.1065 70.0401C66.0273 70.0707 65.9428 70.0851 65.858 70.0825C65.5602 70.0695 65.2794 69.9406 65.0753 69.7234Z" fill="#FF6600"/>
</g>
</g>
</g>
<defs>
<clipPath id="clip0_3_1361">
<rect width="85" height="85" fill="white"/>
</clipPath>
</defs>
</svg>
