<svg width="85" height="85" viewBox="0 0 85 85" fill="none" xmlns="http://www.w3.org/2000/svg">
<g id="icon-compra-materiais.svg" clip-path="url(#clip0_3_1312)">
<g id="Grupo 197">
<path id="Ret&#195;&#162;ngulo 308" d="M69.4167 0H15.5833C6.9769 0 0 6.9769 0 15.5833V69.4167C0 78.0231 6.9769 85 15.5833 85H69.4167C78.0231 85 85 78.0231 85 69.4167V15.5833C85 6.9769 78.0231 0 69.4167 0Z" fill="#FBE2D1"/>
<g id="Grupo 187">
<g id="Grupo 187_2">
<path id="Caminho 399" d="M54.5367 39.899L42.8492 42.9661V30.0383L54.5367 26.9719V39.899Z" fill="#FCDBC7" stroke="#262626" stroke-width="0.708333" stroke-linecap="round" stroke-linejoin="round"/>
<path id="Caminho 400" d="M43.1815 21.25L31.494 24.3171L42.8486 30.0362L54.5361 26.9698L43.1815 21.25Z" fill="#FCDBC7" stroke="#262626" stroke-width="0.708333" stroke-linecap="round" stroke-linejoin="round"/>
<path id="Caminho 401" d="M31.4955 37.2471L42.8501 42.9661V30.0362L31.4955 24.3171V37.2471Z" fill="#FCDBC7" stroke="#262626" stroke-width="0.708333" stroke-linecap="round" stroke-linejoin="round"/>
</g>
<g id="Grupo 188">
<path id="Caminho 402" d="M51.6907 31.5449L40.0032 34.612L64.9564 47.6659L76.6439 44.5995L51.6907 31.5449Z" fill="#FCDBC7" stroke="#262626" stroke-width="0.708333" stroke-linecap="round" stroke-linejoin="round"/>
<path id="Caminho 403" d="M76.6438 57.5294L64.9563 60.5958V47.6659L76.6438 44.5995V57.5294Z" fill="#FCDBC7" stroke="#262626" stroke-width="0.708333" stroke-linecap="round" stroke-linejoin="round"/>
<path id="Caminho 404" d="M40.0039 46.381L64.9571 60.593V47.6659L40.0039 34.6121V46.381Z" fill="#FCDBC7" stroke="#262626" stroke-width="0.708333" stroke-linecap="round" stroke-linejoin="round"/>
</g>
<g id="Grupo 189">
<path id="Caminho 405" d="M62.4084 66.6776L50.7209 69.7439V54.5764L62.4084 51.51V66.6776Z" fill="#FCDBC7" stroke="#262626" stroke-width="0.708333" stroke-linecap="round" stroke-linejoin="round"/>
<path id="Caminho 406" d="M51.0538 45.7881L39.3663 48.8545L50.7209 54.5735L62.4084 51.5072L51.0538 45.7881Z" fill="#FCDBC7" stroke="#262626" stroke-width="0.708333" stroke-linecap="round" stroke-linejoin="round"/>
<path id="Caminho 407" d="M55.665 48.1107L43.9669 51.1806L46.2463 52.3196L57.8169 49.1952L55.665 48.1107Z" fill="#FCDBC7" stroke="#262626" stroke-width="0.708333" stroke-linecap="round" stroke-linejoin="round"/>
<path id="Caminho 408" d="M39.3671 64.0256L50.7216 69.7447V54.5736L39.3671 48.8545V64.0256Z" fill="#FCDBC7" stroke="#262626" stroke-width="0.708333" stroke-linecap="round" stroke-linejoin="round"/>
</g>
<g id="Grupo 190">
<path id="Caminho 409" d="M36.5791 49.4587L24.8916 52.5258V37.354L36.5791 34.2876V49.4587Z" fill="#FCDBC7" stroke="#262626" stroke-width="0.708333" stroke-linecap="round" stroke-linejoin="round"/>
<path id="Caminho 410" d="M25.2239 28.5685L13.5364 31.6349L24.891 37.3539L36.5785 34.2876L25.2239 28.5685Z" fill="#FCDBC7" stroke="#262626" stroke-width="0.708333" stroke-linecap="round" stroke-linejoin="round"/>
<path id="Caminho 411" d="M29.8358 30.8911L18.1377 33.961L20.4171 35.1L31.9877 31.9756L29.8358 30.8911Z" fill="#FCDBC7" stroke="#262626" stroke-width="0.708333" stroke-linecap="round" stroke-linejoin="round"/>
<path id="Caminho 412" d="M13.5378 46.806L24.8924 52.5251V37.354L13.5378 31.6349V46.806Z" fill="#FCDBC7" stroke="#262626" stroke-width="0.708333" stroke-linecap="round" stroke-linejoin="round"/>
</g>
<g id="Grupo 191">
<path id="Caminho 413" d="M37.4716 63.726L20.5637 66.7923V55.1048L37.4716 52.0385V63.726Z" fill="#FCDBC7" stroke="#262626" stroke-width="0.708333" stroke-linecap="round" stroke-linejoin="round"/>
<path id="Caminho 414" d="M26.1163 46.3201L9.20911 49.3864L20.5644 55.1055L37.4723 52.0392L26.1163 46.3201Z" fill="#FCDBC7" stroke="#262626" stroke-width="0.708333" stroke-linecap="round" stroke-linejoin="round"/>
<path id="Caminho 415" d="M30.3854 48.4756L13.4768 51.5427L15.7144 52.6611L32.6231 49.594L30.3854 48.4756Z" fill="#FCDBC7" stroke="#262626" stroke-width="0.708333" stroke-linecap="round" stroke-linejoin="round"/>
<path id="Caminho 416" d="M9.20911 61.0732L20.5644 66.7923V55.1048L9.20911 49.3857V61.0732Z" fill="#FCDBC7" stroke="#262626" stroke-width="0.708333" stroke-linecap="round" stroke-linejoin="round"/>
</g>
<g id="Grupo 193">
<path id="Caminho 417" d="M61.5734 22.015L49.8859 25.0814L65.4097 33.1741L77.3154 30.1077L61.5734 22.015Z" fill="#FCDBC7" stroke="#262626" stroke-width="0.708333" stroke-linecap="round" stroke-linejoin="round"/>
<path id="Caminho 418" d="M77.316 43.0369L65.6285 46.104V33.174L77.316 30.1077V43.0369Z" fill="#FCDBC7" stroke="#262626" stroke-width="0.708333" stroke-linecap="round" stroke-linejoin="round"/>
<path id="Caminho 419" d="M49.8866 36.8511L65.4104 46.104V33.1741L49.8866 25.0814V36.8511Z" fill="#FCDBC7" stroke="#262626" stroke-width="0.708333" stroke-linecap="round" stroke-linejoin="round"/>
<g id="Grupo 192">
<path id="Caminho 422" d="M69.8488 26.7644L59.9987 29.9519L57.0613 28.4099L67.2301 25.3938L69.8488 26.7644Z" fill="#FCDBC7" stroke="#262626" stroke-width="0.708333" stroke-linecap="round" stroke-linejoin="round"/>
</g>
</g>
</g>
<path id="Caminho 423" d="M64.3669 68.8585L41.8064 46.2981L19.2461 68.8585C19.188 68.9659 19.1057 69.0583 19.0056 69.1283C18.9055 69.1982 18.7904 69.2439 18.6696 69.2616C18.5488 69.2793 18.4255 69.2686 18.3095 69.2303C18.1936 69.192 18.0882 69.1272 18.0017 69.041C17.9152 68.9548 17.85 68.8496 17.8113 68.7338C17.7726 68.6179 17.7615 68.4947 17.7788 68.3738C17.7961 68.253 17.8415 68.1378 17.9111 68.0375C17.9807 67.9372 18.0728 67.8545 18.18 67.796L40.7412 45.2356L18.18 22.6752C17.9956 22.531 17.8742 22.3211 17.8411 22.0894C17.8079 21.8577 17.8657 21.6222 18.0022 21.4321C18.1924 21.2954 18.4279 21.2375 18.6597 21.2705C18.8915 21.3035 19.1017 21.4249 19.2461 21.6092L41.8064 44.1696L64.3669 21.6092C64.5114 21.4249 64.7214 21.3035 64.9532 21.2705C65.185 21.2375 65.4205 21.2954 65.6107 21.4321C65.7472 21.6222 65.805 21.8577 65.7718 22.0894C65.7387 22.3211 65.6173 22.531 65.4329 22.6752L42.8726 45.2356L65.4329 67.796C65.6173 67.9404 65.7389 68.1504 65.772 68.3822C65.8051 68.614 65.7473 68.8497 65.6107 69.0399C65.5495 69.0987 65.4773 69.1447 65.3981 69.1753C65.319 69.2058 65.2345 69.2202 65.1496 69.2177C64.8519 69.2046 64.571 69.0758 64.3669 68.8585Z" fill="#FF6600"/>
</g>
</g>
<defs>
<clipPath id="clip0_3_1312">
<rect width="85" height="85" fill="white"/>
</clipPath>
</defs>
</svg>
