<svg width="85" height="85" viewBox="0 0 85 85" fill="none" xmlns="http://www.w3.org/2000/svg">
<g id="icon-falta-dinheiro.svg" clip-path="url(#clip0_3_1412)">
<g id="Grupo 199">
<path id="Ret&#195;&#162;ngulo 309" d="M69.4167 0H15.5833C6.9769 0 0 6.9769 0 15.5833V69.4167C0 78.0231 6.9769 85 15.5833 85H69.4167C78.0231 85 85 78.0231 85 69.4167V15.5833C85 6.9769 78.0231 0 69.4167 0Z" fill="#FBE2D1"/>
<g id="Grupo 151">
<g id="Grupo 82">
<g id="Grupo 79">
<path id="Caminho 265" d="M24.6986 52.2106L35.7132 63.2252L59.86 39.0784L48.8455 28.0638C48.567 28.0517 48.2895 28.1023 48.0333 28.212C47.7771 28.3217 47.5488 28.4876 47.3654 28.6974C46.7979 29.4061 24.626 51.4368 24.626 51.4368L24.6986 52.2106Z" fill="#FBE2D1"/>
<path id="Caminho 263" d="M35.6551 63.5597C35.5987 63.6117 35.5275 63.645 35.4513 63.655C35.3752 63.6649 35.2979 63.6511 35.2299 63.6153C34.7647 63.3016 34.3665 62.8986 34.0584 62.4297C33.9201 62.2494 33.7879 62.0761 33.6607 61.9319C32.972 61.156 32.2317 60.4027 31.507 59.678L31.1063 59.2773C30.7892 58.9602 30.4782 58.6362 30.1656 58.3146C29.1915 57.3074 28.1832 56.2721 27.1379 55.3209C26.9365 55.1366 26.7127 54.9498 26.4823 54.7565C25.5963 54.1351 24.8747 53.3076 24.3796 52.3453C24.3565 52.3151 24.341 52.2796 24.3345 52.2421L24.3846 52.192L24.3255 52.181C24.3125 52.1001 24.33 52.0173 24.3746 51.9486C24.4147 51.8002 24.4792 51.6596 24.5654 51.5324C24.8525 51.132 25.1768 50.7597 25.5341 50.4205L25.8607 50.0939C26.1013 49.8602 26.33 49.6144 26.5459 49.3576C26.8114 49.0352 27.0934 48.7268 27.3908 48.4335C27.6698 48.1545 27.9598 47.8816 28.2493 47.6091C28.5388 47.3366 28.8253 47.0671 29.1023 46.7902L29.2711 46.6214C31.792 44.0274 34.3614 41.4189 36.9088 38.8715L37.1132 38.6671C39.4117 36.3686 41.7352 34.0731 44.0206 31.8428L44.213 31.6505C44.5425 31.3229 44.8701 30.9773 45.2012 30.6272C45.5322 30.2771 45.8758 29.9154 46.2224 29.5688C46.7214 29.0577 47.2578 28.5846 47.8272 28.1534C48.2429 27.8459 48.5029 27.6841 49.0353 27.905C49.4568 28.1431 49.8277 28.4612 50.1272 28.8416C50.2549 28.9823 50.3741 29.1146 50.4818 29.2172C51.0565 29.7659 51.6291 30.3168 52.1998 30.8701C53.4159 32.0471 54.629 33.2432 55.808 34.4243L56.5593 35.1756C57.4915 36.1027 58.4551 37.0613 59.3612 38.0405C59.7889 38.5023 60.1025 38.8419 59.8095 39.4835C59.6146 39.8669 59.354 40.2133 59.0396 40.5068C58.7346 40.8118 58.396 41.0973 58.071 41.3753C57.8446 41.5666 57.6307 41.7464 57.4484 41.9167C57.1459 42.2002 56.8503 42.4877 56.5583 42.7797C55.9072 43.4309 55.2621 44.116 54.6395 44.7777L54.3946 45.0386C53.4069 46.0885 52.4788 47.0456 51.5587 47.9657C50.3205 49.2038 49.1375 50.3328 47.9429 51.4172C47.3003 51.9987 46.6392 52.6308 45.9234 53.3465C44.8145 54.4554 43.7211 55.621 42.6623 56.7479C41.6034 57.8749 40.5085 59.0429 39.3981 60.1533C38.2118 61.3544 36.9624 62.4915 35.6551 63.5597ZM47.4375 50.8998C48.5319 49.9056 49.6659 48.8808 50.7398 47.8069L50.8775 47.6692C51.7145 46.8242 52.5444 45.9432 53.3458 45.0917C54.2098 44.1746 55.1033 43.226 56.0104 42.3189C56.4161 41.9132 56.828 41.5137 57.246 41.1204C57.3753 40.9991 57.5295 40.8689 57.6923 40.7322C57.9187 40.5398 58.1621 40.3345 58.3745 40.1221C58.5596 39.9477 58.7179 39.7468 58.8443 39.5261C59.2525 38.7523 58.6234 38.1903 58.0144 37.6463C57.8701 37.5171 57.7284 37.3904 57.6047 37.2637C56.4381 36.0721 55.2371 34.863 54.0345 33.6735C52.6836 32.3376 51.3183 31.0103 49.9769 29.7291C49.8918 29.644 49.7881 29.5303 49.6774 29.4046C49.472 29.1271 49.2136 28.8932 48.9171 28.7164C48.5249 28.5726 48.3777 28.6938 48.1373 28.8952C48.0661 28.9543 47.99 29.0184 47.8993 29.081C47.651 29.259 47.4187 29.4584 47.2051 29.677C47.0494 29.8328 46.8976 29.9946 46.7469 30.1564C46.5961 30.3181 46.4498 30.4734 46.3011 30.6222L46.2124 30.7108C43.6976 33.1506 41.1582 35.6489 38.6659 38.1322L37.6351 39.163C35.4979 41.3002 33.3406 43.4834 31.2175 45.6547C30.8709 46.0093 30.5233 46.38 30.1772 46.7491C29.7484 47.2079 29.3177 47.6677 28.8744 48.111C28.5143 48.4711 28.1837 48.7816 27.8667 49.0596C27.7635 49.1488 27.6678 49.2404 27.5742 49.3341C27.2867 49.6216 27.0362 49.9241 26.7713 50.2452L26.6265 50.419C26.5965 50.455 26.5549 50.4986 26.5048 50.5487C26.4081 50.6453 26.2789 50.7656 26.1357 50.8968C25.9634 51.0571 25.7715 51.2339 25.5962 51.4092C25.3613 51.602 25.1749 51.8471 25.0518 52.1249C25.4831 52.8885 26.0728 53.5509 26.7813 54.0678C26.9045 54.174 27.0217 54.2741 27.1259 54.3683C27.6964 54.8777 28.2854 55.4356 29.0387 56.1809C30.3525 57.4807 31.6492 58.7914 32.8964 60.0707C33.5009 60.6902 34.0824 61.3419 34.6434 61.972L34.9549 62.3206C35.0496 62.4262 35.1207 62.5124 35.1803 62.584C35.2905 62.7172 35.3571 62.7979 35.4062 62.8019C35.4553 62.8059 35.5585 62.7238 35.7213 62.587L35.8229 62.4994C36.5216 61.9008 37.2018 61.2818 37.8399 60.6527L38.1304 60.3622C38.9388 59.5538 39.7367 58.7128 40.508 57.8984C41.2794 57.084 42.0773 56.243 42.8847 55.4356C43.3299 54.9904 43.7827 54.5506 44.245 54.1214C44.4283 53.9521 44.6046 53.7798 44.7835 53.601C45.1185 53.2659 45.4441 52.9223 45.7697 52.5777C46.0952 52.2331 46.4218 51.8875 46.7574 51.5519C46.9778 51.3295 47.2051 51.1142 47.4355 50.9018L47.4375 50.8998ZM53.9088 42.8879C53.6388 43.1188 53.3853 43.3362 53.1905 43.528L53.186 43.5325C52.8785 43.8401 52.594 44.1576 52.2965 44.4922C51.9604 44.8683 51.6133 45.2575 51.2491 45.6216C50.7399 46.1892 50.1141 46.6401 49.4145 46.9434C49.3362 46.9652 49.2529 46.9599 49.1781 46.9284C49.1032 46.8968 49.0413 46.8409 49.0023 46.7696C48.8596 46.3852 48.7765 45.9811 48.7558 45.5716C48.7345 45.2606 48.6852 44.9521 48.6086 44.65C48.2683 43.5424 47.6847 42.5249 46.9006 41.6718C45.6795 40.3034 43.654 38.7377 40.9428 39.0488C40.884 39.0548 40.8248 39.0439 40.772 39.0173C40.7192 38.9908 40.675 38.9498 40.6448 38.899C40.6065 38.8423 40.5844 38.7763 40.5809 38.708C40.5774 38.6396 40.5925 38.5717 40.6248 38.5113C41.1158 37.7576 41.697 37.0664 42.3552 36.4533L42.7059 36.1027C42.8621 35.9464 43.0164 35.7921 43.1631 35.6374C43.5458 35.2367 43.934 34.8365 44.3292 34.4413C45.0239 33.7466 45.653 33.1556 46.254 32.6347L46.3216 32.5761C46.7078 32.239 46.9412 32.0356 47.4891 32.1819C47.7593 32.2705 48.0161 32.3955 48.2525 32.5535C48.4573 32.6867 48.6751 32.7988 48.9026 32.8881C49.4859 33.0634 50.0957 33.1343 50.7037 33.0975C50.892 33.0965 51.0854 33.0965 51.2827 33.1015L51.3548 33.1736L51.3679 33.1155L51.3839 33.1195L51.4455 33.15C51.8743 33.3634 52.2413 33.6831 52.5113 34.0787C52.624 34.2124 52.7292 34.3376 52.8259 34.4363C53.2356 34.846 53.6503 35.2517 54.0675 35.6539C54.3645 35.9399 54.6601 36.2254 54.9526 36.5139C55.0062 36.5694 55.0409 36.6405 55.0519 36.7169C55.0628 36.7933 55.0495 36.8712 55.0137 36.9396C54.7427 37.5091 54.6668 38.1519 54.7976 38.7689C54.9284 39.3858 55.2587 39.9425 55.7374 40.353C55.7826 40.3976 55.815 40.4534 55.8312 40.5147C55.8474 40.576 55.8468 40.6406 55.8296 40.7016C55.6243 41.1862 55.3152 41.6198 54.924 41.9718C54.603 42.2929 54.2338 42.6089 53.9088 42.8879ZM41.6455 38.291C43.9896 38.2869 46.2981 39.5917 47.997 41.8857C48.726 42.8399 49.2248 43.9496 49.4545 45.1283C49.5242 45.5105 49.5707 45.7684 49.6609 45.7985C49.7631 45.8325 50.0195 45.6081 50.2805 45.3612C50.7438 44.9229 51.1981 44.4827 51.6503 44.0374C51.9383 43.7544 52.2288 43.4729 52.5193 43.1924C52.9391 42.7867 53.3593 42.3795 53.7715 41.9673C54.0255 41.7134 54.2769 41.4569 54.5233 41.1965L54.5899 41.1299C54.936 40.7657 54.936 40.7657 54.7507 40.322C54.6686 40.1407 54.5727 39.9661 54.4637 39.7996C54.3204 39.5849 54.2018 39.3547 54.1101 39.1134C53.9479 38.7047 53.8972 38.2603 53.9633 37.8256C54.005 37.6583 54.066 37.4965 54.1452 37.3433C54.226 37.1968 54.283 37.0384 54.314 36.874C54.045 36.4456 53.6842 36.0824 53.2576 35.8107C53.0863 35.6764 52.9371 35.5582 52.8499 35.4741C52.6952 35.3133 52.5488 35.1448 52.4112 34.9692C52.1007 34.5036 51.6912 34.1123 51.2121 33.8232C51.0288 33.8202 50.8374 33.8212 50.6501 33.8222C49.9564 33.8656 49.2608 33.7762 48.6006 33.5588C48.3262 33.4505 48.0601 33.3227 47.8042 33.1761L47.6594 33.0975C47.1215 32.81 47.0293 32.8971 46.6402 33.2652L46.4744 33.42C45.7952 34.0431 45.1326 34.6767 44.5005 35.3088C44.2838 35.5255 44.0684 35.7442 43.8543 35.9649L43.5894 36.2299L42.8451 36.9662C42.4167 37.3811 42.016 37.8236 41.6455 38.291ZM37.2209 59.3103C37.1599 59.3275 37.0954 59.3279 37.0341 59.3116C36.9729 59.2953 36.9172 59.2629 36.8728 59.2177C36.4621 58.7392 35.9054 58.4091 35.2885 58.2783C34.6716 58.1475 34.0289 58.2233 33.4593 58.4939C33.3909 58.5299 33.3128 58.5433 33.2362 58.5322C33.1597 58.5212 33.0886 58.4862 33.0331 58.4323C32.7426 58.1418 32.4591 57.8443 32.1726 57.5478C31.7704 57.1306 31.3677 56.7129 30.956 56.3051C30.8583 56.2075 30.7321 56.1033 30.5979 55.9901C30.1971 55.7141 29.8733 55.3403 29.6573 54.9042L29.6327 54.8076C29.6182 54.5666 29.6182 54.3773 29.6177 54.1915C29.6705 53.4547 29.5579 52.7154 29.2881 52.0277C29.2155 51.8791 29.1317 51.7361 29.0377 51.6C28.8877 51.3961 28.7709 51.1697 28.6916 50.9293C28.5599 50.4149 28.7832 50.1595 29.0928 49.8059L29.1584 49.7303C29.6908 49.1167 30.2858 48.4816 30.978 47.7894C31.4288 47.3386 31.8881 46.8964 32.3454 46.4641C32.5513 46.2693 32.7556 46.0659 32.964 45.8586C33.5807 45.1904 34.2767 44.6 35.0366 44.1005C35.0969 44.0684 35.1649 44.0532 35.2332 44.0568C35.3015 44.0603 35.3675 44.0823 35.4242 44.1205C35.475 44.1508 35.516 44.1949 35.5426 44.2477C35.5691 44.3005 35.58 44.3598 35.574 44.4186C35.3286 46.5573 36.2602 48.6729 38.197 50.3764C39.0513 51.1592 40.0689 51.7422 41.1762 52.0833C41.4786 52.1607 41.7874 52.2103 42.0988 52.2316C42.5077 52.2512 42.911 52.3342 43.2944 52.4775C43.3658 52.5162 43.4219 52.5781 43.4536 52.6529C43.4853 52.7277 43.4906 52.811 43.4687 52.8892C43.1678 53.587 42.7194 54.2113 42.1544 54.7194C41.7928 55.081 41.4041 55.4276 41.0279 55.7617C40.6894 56.0632 40.3668 56.3507 40.0953 56.6222C39.8614 56.8561 39.6496 57.108 39.4182 57.3775C39.1412 57.7016 38.8221 58.0737 38.4966 58.3993C38.1431 58.7927 37.7077 59.1037 37.2209 59.3103ZM29.9413 49.9461L29.7865 50.1119C29.4183 50.5011 29.3307 50.5938 29.6182 51.1317L29.6953 51.2739C29.8421 51.5297 29.9707 51.7955 30.08 52.0693C30.2984 52.7269 30.3871 53.4205 30.3414 54.1118C30.3409 54.3007 30.3394 54.4945 30.345 54.6944C30.6667 55.1935 31.0824 55.6252 31.5691 55.9656C31.7975 56.1569 31.9943 56.3207 32.112 56.4444C32.2087 56.5411 32.3224 56.6918 32.4486 56.8561C32.6849 57.2368 33.0103 57.5543 33.3967 57.7812C33.5938 57.7571 33.7842 57.6946 33.9572 57.5974C34.1339 57.5052 34.3228 57.4384 34.5182 57.399C34.9744 57.3815 35.4286 57.4693 35.8455 57.6555C36.0305 57.7365 36.2057 57.8381 36.3679 57.9585C36.5246 58.0771 36.6957 58.1752 36.8773 58.2505C37.3215 58.4073 37.3551 58.3737 37.6786 58.0502L37.8409 57.8879C38.0548 57.682 38.2667 57.4732 38.4765 57.2633C38.8983 56.8416 39.314 56.4128 39.7292 55.9856C40.0087 55.6981 40.6097 55.083 40.6097 55.083C40.744 54.9488 40.8887 54.8131 41.0355 54.6753C41.1822 54.5376 41.3395 54.3923 41.4862 54.2456C41.693 54.0456 41.8806 53.8268 42.0467 53.5919C42.2275 53.326 42.2992 53.1612 42.2671 53.0881C42.235 53.0149 42.0667 52.9879 41.8504 52.9599C41.7282 52.9428 41.5869 52.9228 41.4342 52.8892C40.2637 52.616 39.1696 52.0833 38.2326 51.3305C36.0553 49.6421 34.8177 47.3847 34.8207 45.1198C34.3525 45.4893 33.9091 45.8892 33.4934 46.3168L32.7626 47.0556C32.67 47.1483 32.5788 47.2394 32.4897 47.3286C32.2689 47.5426 32.0502 47.758 31.8335 47.9747C31.1974 48.6018 30.5628 49.2645 29.9413 49.9461Z" fill="#333333"/>
</g>
<g id="Grupo 80">
<path id="Caminho 265_2" d="M24.6807 52.3358L38.1707 60.1243L55.2451 30.5506L41.755 22.7621C41.483 22.8225 41.228 22.9432 41.0089 23.1155C40.7898 23.2877 40.6123 23.507 40.4894 23.7572C40.1247 24.5886 24.4102 51.6071 24.4102 51.6071L24.6807 52.3358Z" fill="#FBE2D1"/>
<path id="Caminho 263_2" d="M38.2013 60.4625C38.1602 60.5274 38.1 60.5779 38.0291 60.6073C37.9581 60.6366 37.8798 60.6432 37.8049 60.6263C37.2744 60.4437 36.7854 60.1575 36.3664 59.7843C36.1862 59.6459 36.0137 59.5128 35.8535 59.4063C34.9874 58.8352 34.0774 58.2992 33.1898 57.7867L32.699 57.5033C32.3107 57.2792 31.9264 57.0466 31.5413 56.8169C30.3396 56.0961 29.0977 55.3571 27.8419 54.7089C27.5997 54.583 27.3351 54.4604 27.0625 54.3333C26.0459 53.9625 25.1347 53.3499 24.4074 52.5485C24.3772 52.5253 24.3531 52.4951 24.3372 52.4605L24.3726 52.3992L24.3127 52.4038C24.2791 52.3291 24.2746 52.2446 24.2999 52.1666C24.3002 52.013 24.3261 51.8604 24.3765 51.7152C24.5502 51.2542 24.7671 50.8106 25.0244 50.3905L25.2553 49.9905C25.4273 49.7025 25.5846 49.4059 25.7266 49.102C25.8996 48.7218 26.0922 48.3509 26.3036 47.9907C26.5009 47.649 26.7103 47.3103 26.9195 46.9722C27.1286 46.634 27.3356 46.2996 27.5314 45.9604L27.6508 45.7536C29.4144 42.5956 31.2211 39.4109 33.0224 36.291L33.1669 36.0407C34.7922 33.2257 36.4424 30.407 38.0728 27.6612L38.2088 27.4256C38.4423 27.0239 38.6693 26.6053 38.8984 26.1814C39.1276 25.7576 39.3659 25.3193 39.611 24.8948C39.9606 24.272 40.3563 23.6761 40.7948 23.1123C41.1167 22.7076 41.3259 22.4841 41.8974 22.5596C42.3661 22.6805 42.8068 22.8919 43.1945 23.1817C43.3543 23.2846 43.5036 23.3815 43.6342 23.4528C44.3313 23.834 45.0271 24.218 45.7215 24.6047C47.2008 25.4269 48.6821 26.2682 50.1267 27.1039L51.0468 27.6351C52.1871 28.2894 53.3661 28.966 54.4947 29.6773C55.0274 30.0126 55.4181 30.2595 55.3012 30.9551C55.2121 31.3759 55.0501 31.7778 54.8224 32.1427C54.6067 32.5163 54.3536 32.8797 54.1115 33.2324C53.9424 33.4758 53.7823 33.7048 53.6503 33.9165C53.4315 34.2686 53.2204 34.6228 53.0139 34.9804C52.5535 35.7779 52.1077 36.6067 51.6776 37.4069L51.5086 37.7224C50.8262 38.9921 50.1775 40.1568 49.5269 41.2837C48.6514 42.8001 47.8008 44.1968 46.9276 45.5534C46.4574 46.2814 45.9824 47.0631 45.4763 47.9397C44.6922 49.2978 43.9377 50.7066 43.2066 52.0692C42.4755 53.4318 41.7202 54.8434 40.9351 56.2034C40.1001 57.6707 39.1875 59.0924 38.2013 60.4625ZM46.3056 45.1844C47.1053 43.9408 47.9354 42.6575 48.6948 41.3423L48.7922 41.1736C49.3819 40.1408 49.9555 39.075 50.5092 38.0451C51.1064 36.9357 51.724 35.7881 52.3654 34.6772C52.6523 34.1803 52.9467 33.6878 53.2487 33.1996C53.3422 33.0491 53.4575 32.8834 53.5793 32.7092C53.7482 32.4648 53.9302 32.2034 54.0804 31.9433C54.214 31.7269 54.3149 31.4919 54.3799 31.246C54.5739 30.3929 53.8208 30.0129 53.0917 29.6451C52.9189 29.5576 52.7492 29.4719 52.5969 29.3815C51.1618 28.5325 49.6887 27.6755 48.2192 26.8377C46.5686 25.897 44.9063 24.9683 43.2791 24.0779C43.1748 24.0177 43.0452 23.9347 42.9057 23.8419C42.6355 23.6271 42.3254 23.468 41.9932 23.374C41.5772 23.3366 41.4663 23.4918 41.2862 23.7485C41.2328 23.824 41.1759 23.9057 41.1045 23.9896C40.9106 24.2258 40.7379 24.4786 40.5882 24.745C40.4781 24.9358 40.3734 25.1313 40.2696 25.3266C40.1659 25.5219 40.0648 25.7097 39.9596 25.8919L39.8969 26.0005C38.0992 29.008 36.2929 32.0784 34.5283 35.1222L33.7994 36.3846C32.2882 39.0021 30.7695 41.6694 29.2806 44.3161C29.0376 44.7484 28.7978 45.1964 28.559 45.6425C28.2636 46.1966 27.9666 46.7522 27.6531 47.2951C27.3985 47.7362 27.1596 48.1217 26.9253 48.4723C26.8487 48.5851 26.78 48.6984 26.7138 48.8131C26.5105 49.1652 26.3469 49.5223 26.174 49.9009L26.0792 50.1063C26.0595 50.1489 26.0306 50.2017 25.9952 50.2631C25.9268 50.3815 25.8331 50.531 25.7287 50.6949C25.6038 50.8943 25.4643 51.1147 25.3403 51.3294C25.1633 51.5764 25.0467 51.8615 24.9997 52.1617C25.6139 52.7876 26.355 53.2748 27.1731 53.5907C27.3196 53.6614 27.4587 53.7278 27.5837 53.7918C28.2666 54.1362 28.98 54.5227 29.9005 55.0476C31.5059 55.963 33.0977 56.8935 34.6335 57.8064C35.3778 58.2484 36.1081 58.7273 36.813 59.1907L37.2042 59.4468C37.323 59.5244 37.414 59.5892 37.4901 59.6429C37.631 59.7431 37.7162 59.8038 37.7647 59.7949C37.8131 59.7861 37.8915 59.6801 38.0134 59.5058L38.0889 59.3949C38.6089 58.6359 39.1057 57.8619 39.5592 57.0891L39.7646 56.7333C40.3362 55.7432 40.8893 54.7244 41.4235 53.7381C41.9578 52.7518 42.5109 51.733 43.0818 50.7441C43.3966 50.1988 43.7202 49.6568 44.0556 49.1225C44.1889 48.9116 44.3146 48.6995 44.441 48.4805C44.6779 48.0701 44.9035 47.654 45.1288 47.2369C45.3541 46.8197 45.58 46.4014 45.8173 45.9904C45.9727 45.7185 46.1366 45.4517 46.3041 45.1869L46.3056 45.1844ZM50.4826 35.7707C50.2816 36.0636 50.0931 36.3392 49.9545 36.5749L49.9513 36.5804C49.7339 36.9571 49.5413 37.3374 49.3405 37.7376C49.1132 38.1879 48.8787 38.6537 48.6212 39.0996C48.2762 39.7797 47.7884 40.3772 47.1911 40.8512C47.1212 40.8925 47.0394 40.909 46.9589 40.8979C46.8784 40.8868 46.8041 40.8488 46.748 40.79C46.5107 40.4556 46.3258 40.0869 46.1999 39.6966C46.0987 39.4017 45.9713 39.1165 45.8191 38.8445C45.2037 37.8627 44.3767 37.0309 43.3985 36.4099C41.8649 35.4042 39.5032 34.4161 36.9648 35.4182C36.9096 35.4392 36.8495 35.444 36.7917 35.4321C36.7338 35.4201 36.6806 35.3919 36.6382 35.3507C36.5866 35.3058 36.5481 35.2477 36.5271 35.1827C36.506 35.1176 36.503 35.048 36.5185 34.9814C36.7978 34.1262 37.1802 33.3082 37.6574 32.5456L37.9053 32.1162C38.0158 31.9248 38.1249 31.7358 38.2266 31.5484C38.4925 31.0623 38.7639 30.5753 39.0433 30.0913C39.5345 29.2404 39.9892 28.5067 40.435 27.848L40.4851 27.7739C40.7709 27.3484 40.9437 27.0915 41.5108 27.091C41.7947 27.1066 42.0751 27.1609 42.3443 27.2524C42.5767 27.328 42.8161 27.3799 43.0589 27.4073C43.6678 27.4257 44.2751 27.3363 44.8528 27.1434C45.0345 27.0937 45.2212 27.0436 45.4131 26.9974L45.5015 27.0484L45.499 26.9889L45.5155 26.9886L45.583 27.0022C46.0524 27.0973 46.4896 27.3111 46.8528 27.6233C46.9963 27.7233 47.1303 27.817 47.2492 27.8873C47.751 28.177 48.2566 28.4616 48.7637 28.7421C49.1246 28.9414 49.4839 29.1407 49.8412 29.3437C49.9073 29.3835 49.9592 29.4431 49.9896 29.5141C50.02 29.585 50.0272 29.6638 50.0104 29.7391C49.8961 30.3593 49.9891 30.9999 50.2751 31.5619C50.5612 32.124 51.0243 32.5762 51.5929 32.8489C51.6481 32.8802 51.6938 32.9258 51.7253 32.9808C51.7569 33.0358 51.773 33.0983 51.7722 33.1618C51.6993 33.6829 51.5129 34.1818 51.2262 34.6231C50.9992 35.0163 50.7244 35.4171 50.4826 35.7707ZM37.4475 34.5043C39.7106 33.8938 42.2782 34.5566 44.5129 36.3327C45.4641 37.0657 46.2331 38.0085 46.76 39.0876C46.9262 39.4387 47.038 39.6758 47.1328 39.6815C47.2403 39.6879 47.43 39.4048 47.6181 39.0988C47.9522 38.5555 48.2771 38.0127 48.5987 37.4655C48.8036 37.1177 49.0114 36.7706 49.2194 36.4245C49.5198 35.9239 49.8203 35.4218 50.1118 34.917C50.2914 34.606 50.4679 34.2932 50.6385 33.9778L50.6856 33.8963C50.9257 33.455 50.9257 33.455 50.6318 33.0743C50.5056 32.9204 50.3677 32.7766 50.2194 32.6439C50.0254 32.4737 49.8512 32.282 49.7002 32.0727C49.4377 31.7199 49.2738 31.3038 49.2252 30.8668C49.2221 30.6944 49.2391 30.5223 49.2759 30.3538C49.3161 30.1914 49.3302 30.0237 49.3175 29.8568C48.9469 29.5126 48.5044 29.2552 48.022 29.1031C47.8218 29.0178 47.647 28.9422 47.541 28.8835C47.35 28.7683 47.1649 28.6434 46.9866 28.5094C46.5661 28.1401 46.0694 27.8681 45.5317 27.7128C45.3539 27.7574 45.1693 27.8079 44.9887 27.8573C44.3298 28.0787 43.6347 28.1724 42.9408 28.1333C42.6478 28.0998 42.3576 28.0451 42.0725 27.9698L41.9123 27.9313C41.3183 27.7928 41.2518 27.9008 40.9712 28.3572L40.8511 28.5496C40.3563 29.3272 39.8803 30.1107 39.4333 30.8849C39.2801 31.1503 39.1286 31.4173 38.979 31.6859L38.7917 32.0104L38.2633 32.9142C37.9569 33.4259 37.6844 33.957 37.4475 34.5043ZM38.6138 55.9527C38.5593 55.985 38.4971 56.0021 38.4338 56.0022C38.3704 56.0023 38.3082 55.9854 38.2536 55.9533C37.733 55.5974 37.1099 55.4226 36.4802 55.4559C35.8505 55.4892 35.2492 55.7288 34.7692 56.1377C34.7123 56.1901 34.6404 56.2233 34.5636 56.2324C34.4868 56.2415 34.409 56.2261 34.3415 56.1885C33.9857 55.983 33.6349 55.769 33.2814 55.5568C32.7849 55.2579 32.2878 54.9586 31.7846 54.6714C31.665 54.6023 31.5161 54.5343 31.3572 54.4597C30.8986 54.2968 30.4891 54.0196 30.1675 53.6543L30.1188 53.5673C30.0424 53.3383 29.9934 53.1555 29.9449 52.9761C29.8052 52.2507 29.5051 51.5658 29.0665 50.9714C28.9578 50.8466 28.84 50.7302 28.7139 50.623C28.5162 50.4649 28.3448 50.2765 28.206 50.0648C27.9456 49.602 28.0953 49.2975 28.3028 48.8758L28.3466 48.7858C28.702 48.0553 29.1124 47.2878 29.6019 46.4401C29.9206 45.888 30.2498 45.3419 30.5796 44.806C30.728 44.5646 30.8728 44.3152 31.0204 44.061C31.4432 43.256 31.9627 42.5056 32.5674 41.8265C32.6173 41.7798 32.6791 41.7476 32.7459 41.7333C32.8128 41.7191 32.8823 41.7233 32.947 41.7455C33.0039 41.7616 33.0549 41.7936 33.0942 41.8377C33.1335 41.8818 33.1594 41.9362 33.1688 41.9946C33.4853 44.1239 34.9327 45.9264 37.2444 47.0705C38.2722 47.6055 39.406 47.9053 40.5639 47.9482C40.876 47.9447 41.1871 47.9127 41.4934 47.8526C41.8934 47.7657 42.3045 47.7415 42.7119 47.7807C42.7909 47.7997 42.8611 47.8449 42.9111 47.9089C42.961 47.973 42.9877 48.0521 42.9868 48.1333C42.8768 48.8852 42.6053 49.6043 42.191 50.2413C41.9353 50.6842 41.6496 51.1196 41.3727 51.5396C41.1237 51.9185 40.8865 52.2797 40.6946 52.6122C40.5292 52.8986 40.3898 53.1968 40.236 53.517C40.0523 53.9017 39.8404 54.3438 39.6102 54.7425C39.3707 55.214 39.0305 55.6271 38.6138 55.9527ZM29.1586 48.7917L29.052 48.9919C28.7972 49.463 28.7365 49.5752 29.1534 50.0204L29.2647 50.1379C29.4727 50.3469 29.6657 50.5704 29.8421 50.8066C30.2232 51.3852 30.4885 52.0322 30.6233 52.7119C30.6717 52.8944 30.7204 53.082 30.7775 53.2736C31.2174 53.6725 31.7308 53.9819 32.2889 54.1847C32.559 54.3104 32.7916 54.4176 32.9373 54.5067C33.0557 54.575 33.2045 54.6912 33.3689 54.8172C33.6958 55.1238 34.0923 55.3462 34.5242 55.4654C34.7083 55.3911 34.876 55.2815 35.018 55.1428C35.1649 55.008 35.33 54.8947 35.5085 54.806C35.9447 54.671 36.4061 54.6382 36.857 54.7102C37.0566 54.7405 37.2522 54.7934 37.44 54.8677C37.6221 54.9417 37.8128 54.9922 38.0076 55.0179C38.4773 55.0543 38.501 55.0132 38.7298 54.617L38.8446 54.4182C38.9979 54.164 39.1485 53.9074 39.2969 53.6504C39.5951 53.1339 39.8857 52.6122 40.1762 52.092C40.3717 51.742 40.7931 50.9923 40.7931 50.9923C40.888 50.8279 40.9927 50.6593 41.0988 50.4883C41.2049 50.3173 41.3192 50.1363 41.423 49.9565C41.571 49.7099 41.6956 49.4499 41.7952 49.1801C41.901 48.8764 41.9275 48.6987 41.8777 48.6364C41.8278 48.574 41.6582 48.5915 41.4419 48.6204C41.3195 48.6356 41.1779 48.6528 41.0216 48.6599C39.8203 48.6989 38.6256 48.4676 37.5258 47.9829C34.9857 46.9156 33.2059 45.0554 32.6226 42.8669C32.266 43.345 31.9413 43.846 31.6504 44.3667L31.1357 45.2694C31.0702 45.3829 31.0058 45.4945 30.9427 45.6037C30.7849 45.8676 30.6294 46.1323 30.4762 46.3977C30.024 47.168 29.5826 47.9723 29.1586 48.7917Z" fill="#333333"/>
</g>
<g id="Grupo 81">
<path id="Caminho 265_3" d="M24.5922 52.2677L39.6396 56.3021L48.4841 23.3144L33.4368 19.28C33.1895 19.4087 32.9744 19.5913 32.8073 19.8144C32.6402 20.0375 32.5255 20.2953 32.4715 20.5687C32.3342 21.4663 24.1425 51.6337 24.1425 51.6337L24.5922 52.2677Z" fill="#FBE2D1"/>
<path id="Caminho 263_3" d="M39.7565 56.6209C39.7336 56.6942 39.6885 56.7586 39.6276 56.8053C39.5666 56.852 39.4926 56.8786 39.4159 56.8816C38.8561 56.8425 38.3097 56.6925 37.8084 56.4404C37.5986 56.3533 37.3974 56.2693 37.2151 56.2079C36.2307 55.8802 35.2128 55.5978 34.2227 55.3323L33.6753 55.1855C33.2422 55.0694 32.8108 54.9442 32.3793 54.8219C31.0319 54.4364 29.641 54.0437 28.26 53.7424C27.9935 53.6834 27.7061 53.6335 27.4099 53.5812C26.3318 53.4859 25.293 53.1299 24.3832 52.5438C24.348 52.5292 24.3169 52.5063 24.2925 52.477L24.3109 52.4085L24.2542 52.4285C24.2025 52.365 24.1762 52.2845 24.1805 52.2027C24.141 52.0541 24.1266 51.9001 24.1377 51.7468C24.1862 51.2564 24.2811 50.7718 24.4209 50.2993L24.5405 49.8532C24.6322 49.5304 24.7074 49.2033 24.766 48.8729C24.8348 48.4609 24.9249 48.0527 25.0359 47.65C25.1381 47.2689 25.2528 46.8875 25.3674 46.5067C25.4819 46.126 25.5954 45.7493 25.6968 45.3709L25.7587 45.1404C26.6455 41.6332 27.5671 38.0891 28.5001 34.609L28.575 34.3299C29.4169 31.1898 30.282 28.0399 31.1466 24.9654L31.2171 24.7026C31.3388 24.2541 31.4498 23.791 31.5615 23.3222C31.6733 22.8535 31.7901 22.3685 31.9171 21.895C32.0937 21.2028 32.3218 20.5248 32.5995 19.8666C32.8059 19.3924 32.9501 19.1223 33.5218 19.0475C34.0059 19.043 34.4862 19.1332 34.9358 19.3129C35.1168 19.371 35.2862 19.4259 35.4308 19.461C36.2028 19.649 36.9743 19.8399 37.7452 20.0339C39.387 20.4455 41.0358 20.8751 42.6475 21.3087L43.6739 21.5839C44.9447 21.9209 46.2587 22.2696 47.5331 22.6648C48.1345 22.851 48.5758 22.9884 48.6428 23.6906C48.6657 24.1202 48.6131 24.5504 48.4875 24.9618C48.3758 25.3785 48.2252 25.7951 48.0826 26.1984C47.9822 26.4773 47.8868 26.74 47.814 26.9786C47.6937 27.3754 47.5815 27.7722 47.4745 28.1711C47.236 29.0607 47.0197 29.9767 46.8112 30.861L46.7295 31.2095C46.3988 32.6127 46.0734 33.9057 45.7364 35.1627C45.2829 36.8542 44.8225 38.4235 44.3299 39.96C44.0639 40.785 43.8072 41.663 43.5451 42.6408C43.1389 44.1557 42.7745 45.7119 42.4207 47.2174C42.0669 48.7229 41.7024 50.2821 41.2957 51.799C40.8686 53.4325 40.3548 55.0421 39.7565 56.6209ZM43.6334 39.7645C44.0844 38.3562 44.5543 36.9016 44.9476 35.4346L44.9981 35.2464C45.3006 34.0961 45.5791 32.918 45.8476 31.7798C46.1375 30.5535 46.4373 29.2851 46.7695 28.0459C46.9181 27.4917 47.0751 26.9397 47.2406 26.39C47.292 26.2204 47.3605 26.0305 47.4331 25.8306C47.5331 25.5509 47.6413 25.2513 47.7191 24.9612C47.7922 24.7175 47.8289 24.4644 47.828 24.21C47.7948 23.3356 46.9689 23.1633 46.1694 22.9967C45.9799 22.9568 45.7937 22.9179 45.6232 22.87C44.0171 22.421 42.3722 21.9742 40.7359 21.545C38.898 21.0632 37.0517 20.5961 35.2493 20.1568C35.133 20.1256 34.9864 20.079 34.8276 20.0254C34.511 19.8878 34.1702 19.8143 33.825 19.8094C33.4134 19.881 33.3465 20.0596 33.2389 20.3542C33.2068 20.4409 33.1729 20.5345 33.1257 20.6341C32.9995 20.9124 32.898 21.2013 32.8224 21.4974C32.7653 21.7102 32.7147 21.9262 32.665 22.1417C32.6153 22.3572 32.5662 22.5648 32.5117 22.768L32.4793 22.8892C31.5206 26.2597 30.5699 29.6933 29.6525 33.0903L29.275 34.4985C28.4921 37.4182 27.715 40.3878 26.9614 43.33C26.8384 43.8104 26.7226 44.3052 26.6074 44.798C26.4653 45.4098 26.3221 46.0234 26.1597 46.629C26.0278 47.1209 25.8967 47.5552 25.7611 47.9545C25.7163 48.0833 25.6792 48.2105 25.6449 48.3385C25.5396 48.7312 25.4739 49.1185 25.4049 49.529L25.3664 49.7519C25.3584 49.7982 25.3442 49.8567 25.3258 49.9251C25.2904 50.0572 25.2386 50.2259 25.1801 50.4112C25.111 50.6362 25.0332 50.8852 24.969 51.1247C24.8619 51.4091 24.823 51.7147 24.8552 52.0169C25.6106 52.4627 26.4525 52.7417 27.3246 52.8352C27.4844 52.8656 27.636 52.8937 27.7733 52.9232C28.5222 53.0793 29.3113 53.2681 30.3364 53.5371C32.1242 54.0061 33.9027 54.4933 35.6225 54.9778C36.4559 55.2123 37.2854 55.486 38.0863 55.7514L38.5305 55.8976C38.6653 55.9418 38.77 55.9809 38.8574 56.0131C39.0194 56.0734 39.1175 56.11 39.162 56.0889C39.2065 56.0678 39.2548 55.9451 39.3275 55.7453L39.3717 55.6185C39.6777 54.7508 39.9574 53.8745 40.1956 53.0106L40.302 52.6137C40.5981 51.5093 40.8689 50.382 41.1298 49.291C41.3908 48.1999 41.6616 47.0726 41.9573 45.9696C42.1204 45.3613 42.2927 44.754 42.4786 44.1511C42.5528 43.9128 42.6193 43.6754 42.6848 43.4311C42.8076 42.9733 42.9178 42.513 43.0275 42.0517C43.1373 41.5905 43.2474 41.1278 43.3703 40.6694C43.45 40.3666 43.5393 40.0664 43.6327 39.7672L43.6334 39.7645ZM45.2335 29.5894C45.1151 29.9244 45.0042 30.2394 44.9314 30.503L44.9297 30.5091C44.8171 30.9293 44.7294 31.3465 44.6389 31.7851C44.5359 32.2789 44.4298 32.7896 44.2964 33.287C44.139 34.0332 43.8224 34.7367 43.368 35.3492C43.3111 35.4072 43.2363 35.4442 43.1557 35.4543C43.0751 35.4644 42.9934 35.4469 42.924 35.4047C42.6082 35.143 42.3343 34.8346 42.1116 34.4901C41.9376 34.2314 41.7408 33.9889 41.5234 33.7654C40.6749 32.9762 39.6607 32.3865 38.5551 32.0396C36.8132 31.4648 34.276 31.1211 32.083 32.7459C32.0351 32.7805 31.9783 32.8007 31.9193 32.8041C31.8603 32.8075 31.8016 32.794 31.75 32.7652C31.6885 32.7352 31.6364 32.6891 31.5992 32.6317C31.562 32.5743 31.5411 32.5078 31.5389 32.4394C31.5874 31.541 31.7453 30.6518 32.009 29.7916L32.1374 29.3126C32.1946 29.0991 32.2511 28.8884 32.3009 28.681C32.432 28.1426 32.5682 27.6019 32.7129 27.062C32.9674 26.1129 33.2168 25.2865 33.4771 24.5348L33.5063 24.4502C33.6723 23.9652 33.7728 23.6724 34.3206 23.5251C34.5989 23.4668 34.8838 23.4467 35.1676 23.4654C35.4116 23.4784 35.6563 23.4666 35.898 23.4302C36.4909 23.2905 37.0545 23.047 37.5628 22.7112C37.7254 22.6162 37.8929 22.5195 38.0663 22.4252L38.1649 22.4516L38.1471 22.3948L38.163 22.3902L38.2316 22.3859C38.7097 22.3563 39.1874 22.4498 39.6191 22.6574C39.7836 22.7169 39.9373 22.7728 40.0703 22.8099C40.63 22.96 41.1921 23.1041 41.7546 23.2439C42.1548 23.3432 42.5535 23.4427 42.9511 23.5464C43.0253 23.5677 43.0909 23.6119 43.1386 23.6726C43.1863 23.7333 43.2137 23.8075 43.2169 23.8846C43.2669 24.5133 43.5225 25.1081 43.9442 25.5771C44.366 26.0461 44.9303 26.3632 45.5502 26.4795C45.6116 26.4955 45.6676 26.5277 45.7123 26.5727C45.757 26.6177 45.7888 26.6739 45.8044 26.7354C45.8688 27.2577 45.8178 27.7879 45.655 28.2884C45.5374 28.727 45.3756 29.1853 45.2335 29.5894ZM32.3129 31.7382C34.3413 30.5629 36.9932 30.539 39.6117 31.6767C40.7202 32.1389 41.707 32.8507 42.4953 33.7568C42.7466 34.0531 42.9159 34.2532 43.009 34.2342C43.1146 34.2126 43.2245 33.89 43.3271 33.5457C43.5093 32.9344 43.6827 32.326 43.8519 31.7142C43.9599 31.3251 44.0708 30.936 44.1822 30.5478C44.343 29.9866 44.5034 29.4238 44.6544 28.8606C44.7474 28.5137 44.837 28.1659 44.9203 27.8171L44.9447 27.7261C45.0624 27.2376 45.0624 27.2376 44.68 26.9459C44.5183 26.8299 44.3479 26.7266 44.1703 26.6369C43.9388 26.5225 43.721 26.3824 43.5209 26.2192C43.1761 25.9464 42.9101 25.5867 42.75 25.1772C42.7025 25.0114 42.6744 24.8407 42.6664 24.6685C42.6632 24.5012 42.6334 24.3355 42.578 24.1776C42.1309 23.9409 41.6368 23.8067 41.1314 23.7846C40.9159 23.754 40.7275 23.7262 40.61 23.6969C40.3956 23.6349 40.1845 23.5622 39.9775 23.4789C39.4758 23.2308 38.9255 23.0966 38.366 23.0857C38.2057 23.1747 38.0404 23.2712 37.8787 23.3657C37.2995 23.7501 36.6522 24.0204 35.9716 24.1622C35.6799 24.2056 35.3854 24.2278 35.0905 24.2288L34.9258 24.2331C34.3161 24.253 34.2799 24.3745 34.1268 24.888L34.0606 25.1049C33.7838 25.9842 33.5265 26.8643 33.295 27.7278C33.2156 28.0238 33.1384 28.321 33.0633 28.6191L32.9663 28.9811L32.6897 29.991C32.5261 30.5645 32.4002 31.1482 32.3129 31.7382ZM38.9883 52.1573C38.944 52.2026 38.8884 52.2353 38.8272 52.2517C38.766 52.2682 38.7015 52.268 38.6405 52.2511C38.0455 52.0419 37.3983 52.0343 36.7986 52.2294C36.1988 52.4245 35.68 52.8114 35.3219 53.3306C35.2806 53.396 35.2197 53.4467 35.1478 53.4753C35.076 53.504 34.9969 53.5093 34.9219 53.4903C34.5251 53.3839 34.1308 53.268 33.7344 53.1543C33.1774 52.994 32.6198 52.8335 32.0593 52.6862C31.9259 52.6504 31.7645 52.6232 31.5916 52.5923C31.1064 52.5536 30.6391 52.3917 30.234 52.1219L30.1644 52.0505C30.0314 51.8491 29.9367 51.6851 29.8434 51.5244C29.5208 50.8597 29.0537 50.2756 28.4762 49.8149C28.3389 49.7224 28.1949 49.6404 28.0454 49.5695C27.8136 49.4679 27.5992 49.3302 27.4104 49.1616C27.0391 48.7819 27.1049 48.449 27.1962 47.9879L27.2153 47.8896C27.3697 47.092 27.5676 46.2444 27.8212 45.2988C27.9863 44.6829 28.163 44.0702 28.343 43.4672C28.4239 43.1955 28.4993 42.9172 28.5761 42.6334C28.7763 41.7463 29.084 40.887 29.4925 40.0745C29.5287 40.0164 29.58 39.9694 29.641 39.9383C29.7019 39.9072 29.7701 39.8933 29.8383 39.898C29.8974 39.8988 29.955 39.9165 30.0044 39.949C30.0538 39.9815 30.0929 40.0274 30.117 40.0813C30.9736 42.0565 32.8383 43.4234 35.3676 43.9307C36.4989 44.1816 37.6718 44.178 38.8015 43.9199C39.1021 43.8357 39.3944 43.7243 39.6748 43.5871C40.0387 43.3996 40.4296 43.2699 40.8333 43.2024C40.9146 43.2002 40.9941 43.2257 41.0589 43.2747C41.1237 43.3237 41.17 43.3932 41.1902 43.4719C41.2784 44.2267 41.2021 44.9917 40.9667 45.7142C40.8342 46.2083 40.6708 46.7028 40.512 47.1802C40.3695 47.6107 40.2338 48.021 40.1343 48.3918C40.0487 48.7114 39.9911 49.0355 39.9254 49.3846C39.8475 49.8038 39.7571 50.2856 39.6379 50.7304C39.5284 51.2479 39.3067 51.735 38.9883 52.1573ZM28.0013 47.6852L27.9501 47.9062C27.8258 48.4274 27.7962 48.5515 28.3141 48.8737L28.4521 48.9583C28.7071 49.1065 28.9513 49.2724 29.1829 49.455C29.7008 49.9154 30.1244 50.4719 30.4305 51.0935C30.5244 51.2574 30.62 51.426 30.7247 51.5964C31.2529 51.8679 31.8289 52.034 32.4206 52.0855C32.7141 52.1371 32.9664 52.1805 33.1303 52.2289C33.2623 52.2643 33.4362 52.338 33.6276 52.4172C34.0227 52.6288 34.4633 52.7412 34.9114 52.7445C35.07 52.6251 35.2037 52.4759 35.305 52.3051C35.412 52.1369 35.5422 51.9847 35.6917 51.8529C36.0782 51.6096 36.5155 51.4586 36.9697 51.4115C37.1704 51.3891 37.373 51.3896 37.5737 51.4128C37.7687 51.4372 37.966 51.4366 38.1609 51.4111C38.6241 51.3248 38.6364 51.2789 38.7549 50.8369L38.8143 50.6152C38.8967 50.33 38.9758 50.0431 39.0526 49.7564C39.2071 49.1803 39.3529 48.6011 39.4989 48.0234C39.5973 47.6347 39.8104 46.8014 39.8104 46.8014C39.8596 46.618 39.9171 46.4281 39.9754 46.2354C40.0337 46.0428 40.0973 45.8383 40.151 45.6378C40.2302 45.3613 40.2833 45.0779 40.3097 44.7915C40.3334 44.4707 40.3131 44.2921 40.2487 44.2448C40.1844 44.1975 40.0251 44.2582 39.8237 44.3421C39.7093 44.3884 39.5769 44.4417 39.4278 44.489C38.2774 44.8375 37.0634 44.923 35.8754 44.7394C33.1454 44.3653 30.9448 43.0287 29.8151 41.0653C29.5943 41.6194 29.4101 42.1874 29.2638 42.7657L29.0002 43.771C28.9662 43.8976 28.9328 44.0221 28.9002 44.1439C28.816 44.4397 28.7342 44.7356 28.6548 45.0316C28.4173 45.8928 28.1989 46.784 28.0013 47.6852Z" fill="#333333"/>
</g>
</g>
<path id="Caminho 266" d="M68.9534 67.6813L42.053 40.7809L15.1535 67.6813C15.0837 67.8089 14.9851 67.9186 14.8655 68.0016C14.746 68.0845 14.6089 68.1385 14.4649 68.1592C14.3208 68.1799 14.1739 68.1667 14.0358 68.1207C13.8978 68.0748 13.7724 67.9973 13.6695 67.8944C13.5667 67.7915 13.4891 67.6661 13.4432 67.528C13.3972 67.39 13.3841 67.2431 13.4048 67.0991C13.4255 66.9551 13.4794 66.8179 13.5623 66.6984C13.6453 66.5788 13.7549 66.4803 13.8826 66.4105L40.783 39.5101L13.8784 12.6105C13.6584 12.4386 13.5134 12.1883 13.4738 11.912C13.4342 11.6356 13.503 11.3547 13.6659 11.1279C13.8927 10.9652 14.1737 10.8965 14.45 10.9361C14.7263 10.9757 14.9765 11.1206 15.1485 11.3404L42.0489 38.2408L68.9534 11.3355C69.1254 11.1156 69.3756 10.9707 69.6519 10.9311C69.9282 10.8915 70.2092 10.9603 70.436 11.123C70.5989 11.3497 70.6677 11.6307 70.6281 11.907C70.5885 12.1834 70.4435 12.4337 70.2235 12.6055L43.3239 39.5101L70.2242 66.4105C70.444 66.5825 70.589 66.8328 70.6286 67.1091C70.6682 67.3854 70.5994 67.6663 70.4367 67.8931C70.3638 67.9633 70.2777 68.0182 70.1833 68.0547C70.089 68.0912 69.9883 68.1085 69.8871 68.1056C69.5325 68.0912 69.1974 67.939 68.9534 67.6813Z" fill="#FF6600"/>
</g>
</g>
</g>
<defs>
<clipPath id="clip0_3_1412">
<rect width="85" height="85" fill="white"/>
</clipPath>
</defs>
</svg>
